<?xml version="1.0" encoding="UTF-8"?>
<svg width="239px" height="77px" viewBox="0 0 239 77" version="1.1" xmlns="http://www.w3.org/2000/svg" xmlns:xlink="http://www.w3.org/1999/xlink">
    <!-- Generator: Sketch 47 (45396) - http://www.bohemiancoding.com/sketch -->
    <title>logo-dark</title>
    <desc>Created with Sketch.</desc>
    <defs></defs>
    <g id="Page-1" stroke="none" stroke-width="1" fill="none" fill-rule="evenodd">
        <g id="logo-dark">
            <path d="M69.7827148,62.0483398 L66.6342773,62.0483398 L65.0791016,65 L63.8793945,65 L68.9511719,55.7197266 L70.0556641,55.7197266 L71.2236328,65 L70.1445312,65 L69.7827148,62.0483398 Z M69.668457,61.0581055 L69.4462891,59.1601562 C69.3447261,58.4026655 69.283366,57.662113 69.262207,56.9384766 C69.1056307,57.3108743 68.9353037,57.6811505 68.7512207,58.0493164 C68.5671378,58.4174823 68.0392296,59.420402 67.1674805,61.0581055 L69.668457,61.0581055 Z M73.2675781,65 L72.2011719,65 L74.3085938,55.1230469 L75.375,55.1230469 L73.2675781,65 Z M76.5683594,65 L75.5019531,65 L77.609375,55.1230469 L78.6757812,55.1230469 L76.5683594,65 Z M81.5639648,65.1269531 C80.7853151,65.1269531 80.1738303,64.8963239 79.7294922,64.4350586 C79.285154,63.9737933 79.0629883,63.3348023 79.0629883,62.5180664 C79.0629883,61.7224895 79.2206202,60.9597204 79.5358887,60.2297363 C79.8511572,59.4997522 80.2690404,58.9316427 80.7895508,58.5253906 C81.3100612,58.1191386 81.8834604,57.9160156 82.5097656,57.9160156 C83.1572298,57.9160156 83.6438786,58.0567206 83.9697266,58.3381348 C84.2955745,58.6195489 84.4584961,59.0120418 84.4584961,59.515625 C84.4584961,60.2773476 84.1072626,60.8750792 83.4047852,61.3088379 C82.7023077,61.7425966 81.6972722,61.9594727 80.3896484,61.9594727 L80.1801758,61.9594727 L80.1547852,62.4672852 C80.1547852,63.0216499 80.2849108,63.4543441 80.545166,63.7653809 C80.8054212,64.0764176 81.2084934,64.2319336 81.7543945,64.2319336 C82.0209974,64.2319336 82.2950018,64.193848 82.576416,64.1176758 C82.8578302,64.0415035 83.2080057,63.9018565 83.6269531,63.6987305 L83.6269531,64.6254883 C83.2291647,64.8116871 82.8779312,64.9418128 82.5732422,65.0158691 C82.2685532,65.0899255 81.9321307,65.1269531 81.5639648,65.1269531 Z M82.4462891,58.8237305 C82.0104145,58.8237305 81.6009948,59.0226217 81.2180176,59.4204102 C80.8350404,59.8181986 80.5419932,60.3704392 80.3388672,61.0771484 L80.4150391,61.0771484 C81.3798876,61.0771484 82.1193822,60.9512545 82.6335449,60.6994629 C83.1477076,60.4476713 83.4047852,60.0826847 83.4047852,59.6044922 C83.4047852,59.3802072 83.3275561,59.1940112 83.1730957,59.0458984 C83.0186353,58.8977857 82.7763688,58.8237305 82.4462891,58.8237305 Z M89.5175781,63.0258789 C89.5175781,63.6860385 89.2837751,64.2012514 88.8161621,64.5715332 C88.3485491,64.941815 87.6894574,65.1269531 86.8388672,65.1269531 C86.1236943,65.1269531 85.4783557,64.9809585 84.902832,64.6889648 L84.902832,63.6860352 C85.1990575,63.8637704 85.518553,64.0013016 85.8613281,64.0986328 C86.2041033,64.195964 86.5214829,64.2446289 86.8134766,64.2446289 C87.3466824,64.2446289 87.7486966,64.1388357 88.0195312,63.9272461 C88.2903659,63.7156565 88.4257812,63.4448259 88.4257812,63.1147461 C88.4257812,62.873534 88.351726,62.670411 88.2036133,62.5053711 C88.0555006,62.3403312 87.7360051,62.1139337 87.2451172,61.8261719 C86.6949842,61.5172511 86.3056652,61.2146825 86.0771484,60.918457 C85.8486317,60.6222316 85.734375,60.2709981 85.734375,59.8647461 C85.734375,59.2807588 85.9480773,58.809979 86.3754883,58.4523926 C86.8028993,58.0948062 87.3657192,57.9160156 88.0639648,57.9160156 C88.7876013,57.9160156 89.4858365,58.0725896 90.1586914,58.3857422 L89.815918,59.2553711 L89.4604492,59.0966797 C89.0330382,58.9147126 88.5675481,58.8237305 88.0639648,58.8237305 C87.6704082,58.8237305 87.361492,58.9157706 87.137207,59.0998535 C86.9129221,59.2839365 86.8007812,59.5219712 86.8007812,59.8139648 C86.8007812,60.0509452 86.8758944,60.2540682 87.026123,60.4233398 C87.1763517,60.5926115 87.4863258,60.8105455 87.9560547,61.0771484 C88.4088564,61.331056 88.7336416,61.54899 88.9304199,61.730957 C89.1271982,61.9129241 89.2742508,62.1086415 89.371582,62.3181152 C89.4689132,62.5275889 89.5175781,62.7635078 89.5175781,63.0258789 Z M101.774902,65 L100.695801,65 L100.384766,58.8745117 C100.350911,58.298988 100.333984,57.7023143 100.333984,57.0844727 L100.295898,57.0844727 C100.190104,57.3891617 100.061036,57.7160627 99.9086914,58.0651855 C99.7563469,58.4143084 98.6899513,60.7258901 96.7094727,65 L95.6049805,65 L95.2114258,55.7197266 L96.2905273,55.7197266 L96.4873047,61.4389648 L96.5,61.9975586 C96.5,62.4122742 96.4788414,62.9581672 96.4365234,63.6352539 L96.4746094,63.6352539 C96.8512389,62.6069285 97.1813137,61.7965524 97.4648438,61.2041016 L100.035645,55.7197266 L101.165527,55.7197266 L101.438477,61.1787109 C101.476563,61.8261751 101.495605,62.4693978 101.495605,63.1083984 L101.489258,63.6352539 L101.546387,63.6352539 C101.863771,62.6873325 102.140949,61.9383166 102.37793,61.3881836 L104.834473,55.7197266 L105.989746,55.7197266 L101.774902,65 Z M106.313477,65 L105.24707,65 L106.732422,58.0429688 L107.798828,58.0429688 L106.313477,65 Z M107.030762,56.265625 C107.030762,56.0286446 107.098469,55.8350431 107.233887,55.6848145 C107.369304,55.5345858 107.544921,55.4594727 107.760742,55.4594727 C108.13314,55.4594727 108.319336,55.6499004 108.319336,56.0307617 C108.319336,56.2635103 108.248454,56.4602857 108.106689,56.6210938 C107.964924,56.7819018 107.800945,56.8623047 107.614746,56.8623047 C107.445474,56.8623047 107.305827,56.810466 107.195801,56.7067871 C107.085774,56.6031082 107.030762,56.4560556 107.030762,56.265625 Z M111.385254,65.1269531 C110.564286,65.1269531 109.927411,64.9005556 109.474609,64.4477539 C109.021808,63.9949522 108.79541,63.3559612 108.79541,62.5307617 C108.79541,61.6844033 108.951984,60.9036494 109.265137,60.1884766 C109.578289,59.4733037 110.010984,58.9157735 110.563232,58.5158691 C111.115481,58.1159648 111.736487,57.9160156 112.42627,57.9160156 C113.006025,57.9160156 113.573077,58.0239247 114.127441,58.2397461 L113.829102,59.1347656 C113.321287,58.9189442 112.857912,58.8110352 112.438965,58.8110352 C111.965004,58.8110352 111.53231,58.9728988 111.140869,59.2966309 C110.749428,59.6203629 110.442628,60.071042 110.220459,60.6486816 C109.99829,61.2263212 109.887207,61.853675 109.887207,62.5307617 C109.887207,63.0724311 110.027912,63.4934881 110.309326,63.7939453 C110.59074,64.0944025 110.979001,64.2446289 111.474121,64.2446289 C111.77881,64.2446289 112.066568,64.2023116 112.337402,64.1176758 C112.608237,64.0330399 112.874836,63.9335943 113.137207,63.8193359 L113.137207,64.7270508 C112.612465,64.9936537 112.028486,65.1269531 111.385254,65.1269531 Z M118.65332,65 L119.592773,60.6074219 C119.668946,60.2096334 119.707031,59.9239918 119.707031,59.7504883 C119.707031,59.1241831 119.395999,58.8110352 118.773926,58.8110352 C118.397296,58.8110352 118.030194,58.9358711 117.672607,59.1855469 C117.315021,59.4352226 116.999757,59.7980933 116.726807,60.2741699 C116.453856,60.7502465 116.247559,61.3247037 116.10791,61.9975586 L115.466797,65 L114.400391,65 L116.495117,55.1230469 L117.561523,55.1230469 C117.485351,55.4700538 117.412354,55.8064762 117.342529,56.1323242 C117.272705,56.4581722 117.200765,56.789305 117.126709,57.1257324 C117.052653,57.4621599 116.97225,57.8144513 116.885498,58.1826172 C116.798746,58.5507831 116.698243,58.9506814 116.583984,59.3823242 L116.653809,59.3823242 C117.051597,58.8618138 117.44409,58.4894217 117.831299,58.2651367 C118.218508,58.0408517 118.623696,57.9287109 119.046875,57.9287109 C119.60124,57.9287109 120.029702,58.0810532 120.332275,58.3857422 C120.634849,58.6904312 120.786133,59.1220675 120.786133,59.6806641 C120.786133,59.9430352 120.737468,60.2942686 120.640137,60.734375 C120.475097,61.5511109 120.168297,62.9729716 119.719727,65 L118.65332,65 Z M124.036133,64.2573242 C124.268881,64.2573242 124.573566,64.2023117 124.950195,64.0922852 L124.950195,64.9111328 C124.806314,64.9703779 124.628582,65.0211586 124.416992,65.0634766 C124.205403,65.1057945 124.036133,65.1269531 123.90918,65.1269531 C123.380206,65.1269531 122.975018,65.0010592 122.693604,64.7492676 C122.412189,64.497476 122.271484,64.12191 122.271484,63.6225586 C122.271484,63.3432603 122.30957,63.0258807 122.385742,62.6704102 L123.191895,58.8491211 L122.100098,58.8491211 L122.188965,58.3857422 L123.363281,57.890625 L124.156738,56.4433594 L124.778809,56.4433594 L124.429688,58.0429688 L126.168945,58.0429688 L126.003906,58.8491211 L124.270996,58.8491211 L123.452148,62.6831055 C123.375976,63.0512714 123.337891,63.3305655 123.337891,63.5209961 C123.337891,63.7579764 123.399251,63.9399408 123.521973,64.0668945 C123.644695,64.1938483 123.81608,64.2573242 124.036133,64.2573242 Z M127.18457,65 L126.118164,65 L127.603516,58.0429688 L128.669922,58.0429688 L127.18457,65 Z M127.901855,56.265625 C127.901855,56.0286446 127.969563,55.8350431 128.10498,55.6848145 C128.240398,55.5345858 128.416015,55.4594727 128.631836,55.4594727 C129.004234,55.4594727 129.19043,55.6499004 129.19043,56.0307617 C129.19043,56.2635103 129.119548,56.4602857 128.977783,56.6210938 C128.836018,56.7819018 128.672039,56.8623047 128.48584,56.8623047 C128.316568,56.8623047 128.176921,56.810466 128.066895,56.7067871 C127.956868,56.6031082 127.901855,56.4560556 127.901855,56.265625 Z M136.026855,58.0429688 L135.868164,58.722168 L134.528809,58.8745117 C134.702312,59.1368828 134.789062,59.4711894 134.789062,59.8774414 C134.789062,60.6857137 134.542564,61.3299943 134.049561,61.8103027 C133.556557,62.2906111 132.897465,62.5307617 132.072266,62.5307617 C131.839517,62.5307617 131.661784,62.5138348 131.539062,62.4799805 C130.950843,62.7042654 130.656738,62.9814437 130.656738,63.3115234 C130.656738,63.4850269 130.726562,63.6003415 130.866211,63.6574707 C131.00586,63.7145999 131.208983,63.760091 131.475586,63.7939453 L132.218262,63.8828125 C132.984216,63.9759119 133.53963,64.162108 133.884521,64.4414062 C134.229413,64.7207045 134.401855,65.1311822 134.401855,65.6728516 C134.401855,66.4515013 134.092939,67.0545226 133.475098,67.4819336 C132.857256,67.9093446 131.987636,68.1230469 130.866211,68.1230469 C130.045243,68.1230469 129.402021,67.9675309 128.936523,67.6564941 C128.471026,67.3454574 128.238281,66.9064156 128.238281,66.3393555 C128.238281,65.8950173 128.390623,65.50993 128.695312,65.184082 C129.000002,64.858234 129.492998,64.5810558 130.174316,64.3525391 C129.844237,64.1790356 129.679199,63.923016 129.679199,63.5844727 C129.679199,63.292479 129.787108,63.0417491 130.00293,62.8322754 C130.218751,62.6228017 130.519204,62.4270842 130.904297,62.2451172 C130.637694,62.1096998 130.41976,61.9097507 130.250488,61.6452637 C130.081217,61.3807767 129.996582,61.0729184 129.996582,60.7216797 C129.996582,59.900712 130.249428,59.2278672 130.755127,58.703125 C131.260826,58.1783828 131.907223,57.9160156 132.694336,57.9160156 C133.024416,57.9160156 133.350259,57.9583329 133.671875,58.0429688 L136.026855,58.0429688 Z M129.266602,66.237793 C129.266602,66.563641 129.404133,66.8217764 129.679199,67.012207 C129.954266,67.2026377 130.362628,67.2978516 130.904297,67.2978516 C131.674483,67.2978516 132.276446,67.1634942 132.710205,66.8947754 C133.143964,66.6260566 133.36084,66.246259 133.36084,65.7553711 C133.36084,65.493 133.246583,65.2856453 133.018066,65.1333008 C132.78955,64.9809563 132.400231,64.8751631 131.850098,64.815918 L130.84082,64.7143555 C130.333005,64.8201503 129.943686,65.0063463 129.672852,65.2729492 C129.402017,65.5395521 129.266602,65.8611635 129.266602,66.237793 Z M131.03125,60.6835938 C131.03125,61.0432961 131.126464,61.3173005 131.316895,61.5056152 C131.507325,61.69393 131.771808,61.7880859 132.110352,61.7880859 C132.444663,61.7880859 132.736652,61.6992196 132.986328,61.5214844 C133.236004,61.3437491 133.42749,61.0993668 133.560791,60.7883301 C133.694092,60.4772934 133.760742,60.139813 133.760742,59.7758789 C133.760742,59.428872 133.667644,59.1643889 133.481445,58.9824219 C133.295246,58.8004548 133.028648,58.7094727 132.681641,58.7094727 C132.351561,58.7094727 132.062745,58.7951652 131.815186,58.9665527 C131.567626,59.1379403 131.375082,59.377033 131.237549,59.6838379 C131.100016,59.9906428 131.03125,60.3238914 131.03125,60.6835938 Z M138.680176,65.1269531 C137.901526,65.1269531 137.290041,64.8963239 136.845703,64.4350586 C136.401365,63.9737933 136.179199,63.3348023 136.179199,62.5180664 C136.179199,61.7224895 136.336831,60.9597204 136.6521,60.2297363 C136.967368,59.4997522 137.385251,58.9316427 137.905762,58.5253906 C138.426272,58.1191386 138.999671,57.9160156 139.625977,57.9160156 C140.273441,57.9160156 140.76009,58.0567206 141.085938,58.3381348 C141.411785,58.6195489 141.574707,59.0120418 141.574707,59.515625 C141.574707,60.2773476 141.223474,60.8750792 140.520996,61.3088379 C139.818519,61.7425966 138.813483,61.9594727 137.505859,61.9594727 L137.296387,61.9594727 L137.270996,62.4672852 C137.270996,63.0216499 137.401122,63.4543441 137.661377,63.7653809 C137.921632,64.0764176 138.324704,64.2319336 138.870605,64.2319336 C139.137208,64.2319336 139.411213,64.193848 139.692627,64.1176758 C139.974041,64.0415035 140.324217,63.9018565 140.743164,63.6987305 L140.743164,64.6254883 C140.345376,64.8116871 139.994142,64.9418128 139.689453,65.0158691 C139.384764,65.0899255 139.048342,65.1269531 138.680176,65.1269531 Z M139.5625,58.8237305 C139.126625,58.8237305 138.717206,59.0226217 138.334229,59.4204102 C137.951251,59.8181986 137.658204,60.3704392 137.455078,61.0771484 L137.53125,61.0771484 C138.496099,61.0771484 139.235593,60.9512545 139.749756,60.6994629 C140.263919,60.4476713 140.520996,60.0826847 140.520996,59.6044922 C140.520996,59.3802072 140.443767,59.1940112 140.289307,59.0458984 C140.134846,58.8977857 139.89258,58.8237305 139.5625,58.8237305 Z M148.468262,65.1269531 C147.689612,65.1269531 147.078127,64.8963239 146.633789,64.4350586 C146.189451,63.9737933 145.967285,63.3348023 145.967285,62.5180664 C145.967285,61.7224895 146.124917,60.9597204 146.440186,60.2297363 C146.755454,59.4997522 147.173337,58.9316427 147.693848,58.5253906 C148.214358,58.1191386 148.787757,57.9160156 149.414062,57.9160156 C150.061527,57.9160156 150.548175,58.0567206 150.874023,58.3381348 C151.199871,58.6195489 151.362793,59.0120418 151.362793,59.515625 C151.362793,60.2773476 151.01156,60.8750792 150.309082,61.3088379 C149.606605,61.7425966 148.601569,61.9594727 147.293945,61.9594727 L147.084473,61.9594727 L147.059082,62.4672852 C147.059082,63.0216499 147.189208,63.4543441 147.449463,63.7653809 C147.709718,64.0764176 148.11279,64.2319336 148.658691,64.2319336 C148.925294,64.2319336 149.199299,64.193848 149.480713,64.1176758 C149.762127,64.0415035 150.112303,63.9018565 150.53125,63.6987305 L150.53125,64.6254883 C150.133462,64.8116871 149.782228,64.9418128 149.477539,65.0158691 C149.17285,65.0899255 148.836428,65.1269531 148.468262,65.1269531 Z M149.350586,58.8237305 C148.914711,58.8237305 148.505292,59.0226217 148.122314,59.4204102 C147.739337,59.8181986 147.44629,60.3704392 147.243164,61.0771484 L147.319336,61.0771484 C148.284185,61.0771484 149.023679,60.9512545 149.537842,60.6994629 C150.052005,60.4476713 150.309082,60.0826847 150.309082,59.6044922 C150.309082,59.3802072 150.231853,59.1940112 150.077393,59.0458984 C149.922932,58.8977857 149.680666,58.8237305 149.350586,58.8237305 Z M156.383789,65 L157.323242,60.6074219 C157.407878,60.1673155 157.450195,59.8626311 157.450195,59.6933594 C157.450195,59.4267565 157.375082,59.2130542 157.224854,59.0522461 C157.074625,58.891438 156.834474,58.8110352 156.504395,58.8110352 C156.127765,58.8110352 155.760663,58.937987 155.403076,59.1918945 C155.04549,59.4458021 154.730226,59.8076148 154.457275,60.2773438 C154.184325,60.7470727 153.978028,61.3162401 153.838379,61.9848633 L153.197266,65 L152.130859,65 L153.616211,58.0429688 L154.498535,58.0429688 L154.358887,59.331543 L154.422363,59.331543 C154.828615,58.8152643 155.221108,58.4502778 155.599854,58.2365723 C155.978599,58.0228668 156.371092,57.9160156 156.777344,57.9160156 C157.314781,57.9160156 157.739012,58.0630682 158.050049,58.3571777 C158.361086,58.6512873 158.516602,59.0628229 158.516602,59.5917969 C158.516602,59.9261084 158.467937,60.306964 158.370605,60.734375 L157.462891,65 L156.383789,65 Z M163.31543,57.9287109 C164.136397,57.9287109 164.730955,58.3307251 165.099121,59.1347656 L165.162598,59.1347656 C165.234538,58.4788379 165.329752,57.8990911 165.448242,57.3955078 L165.943359,55.1230469 L166.99707,55.1230469 L164.902344,65 L164.02002,65 L164.159668,63.6733398 L164.108887,63.6733398 C163.681476,64.2023138 163.281577,64.5768218 162.90918,64.796875 C162.536782,65.0169282 162.151695,65.1269531 161.753906,65.1269531 C161.165687,65.1269531 160.706545,64.9195984 160.376465,64.5048828 C160.046385,64.0901672 159.881348,63.5146521 159.881348,62.7783203 C159.881348,61.8727168 160.03369,61.043298 160.338379,60.2900391 C160.643068,59.5367801 161.054604,58.9549174 161.572998,58.5444336 C162.091393,58.1339498 162.672197,57.9287109 163.31543,57.9287109 Z M162.109375,64.2446289 C162.507163,64.2446289 162.917641,64.0467956 163.34082,63.651123 C163.764,63.2554505 164.099364,62.7497589 164.346924,62.1340332 C164.594484,61.5183075 164.718262,60.8909537 164.718262,60.2519531 C164.718262,59.7822242 164.604005,59.4246432 164.375488,59.1791992 C164.146972,58.9337553 163.814781,58.8110352 163.378906,58.8110352 C162.951495,58.8110352 162.554771,58.985594 162.188721,59.3347168 C161.822671,59.6838396 161.528566,60.1747201 161.306396,60.807373 C161.084227,61.4400259 160.973145,62.1054653 160.973145,62.8037109 C160.973145,63.7643277 161.351884,64.2446289 162.109375,64.2446289 Z M168.19043,65 L167.124023,65 L169.231445,55.1230469 L170.297852,55.1230469 L168.19043,65 Z M171.503906,65 L170.4375,65 L171.922852,58.0429688 L172.989258,58.0429688 L171.503906,65 Z M172.221191,56.265625 C172.221191,56.0286446 172.288899,55.8350431 172.424316,55.6848145 C172.559734,55.5345858 172.73535,55.4594727 172.951172,55.4594727 C173.32357,55.4594727 173.509766,55.6499004 173.509766,56.0307617 C173.509766,56.2635103 173.438884,56.4602857 173.297119,56.6210938 C173.155354,56.7819018 172.991375,56.8623047 172.805176,56.8623047 C172.635904,56.8623047 172.496257,56.810466 172.38623,56.7067871 C172.276204,56.6031082 172.221191,56.4560556 172.221191,56.265625 Z M176.575684,65.1269531 C175.754716,65.1269531 175.117841,64.9005556 174.665039,64.4477539 C174.212237,63.9949522 173.98584,63.3559612 173.98584,62.5307617 C173.98584,61.6844033 174.142414,60.9036494 174.455566,60.1884766 C174.768719,59.4733037 175.201413,58.9157735 175.753662,58.5158691 C176.305911,58.1159648 176.926917,57.9160156 177.616699,57.9160156 C178.196455,57.9160156 178.763506,58.0239247 179.317871,58.2397461 L179.019531,59.1347656 C178.511716,58.9189442 178.048342,58.8110352 177.629395,58.8110352 C177.155434,58.8110352 176.72274,58.9728988 176.331299,59.2966309 C175.939858,59.6203629 175.633058,60.071042 175.410889,60.6486816 C175.18872,61.2263212 175.077637,61.853675 175.077637,62.5307617 C175.077637,63.0724311 175.218342,63.4934881 175.499756,63.7939453 C175.78117,64.0944025 176.169431,64.2446289 176.664551,64.2446289 C176.96924,64.2446289 177.256997,64.2023116 177.527832,64.1176758 C177.798667,64.0330399 178.065266,63.9335943 178.327637,63.8193359 L178.327637,64.7270508 C177.802895,64.9936537 177.218916,65.1269531 176.575684,65.1269531 Z M183.84375,65 L184.783203,60.6074219 C184.859375,60.2096334 184.897461,59.9239918 184.897461,59.7504883 C184.897461,59.1241831 184.586429,58.8110352 183.964355,58.8110352 C183.587726,58.8110352 183.220624,58.9358711 182.863037,59.1855469 C182.505451,59.4352226 182.190187,59.7980933 181.917236,60.2741699 C181.644286,60.7502465 181.437989,61.3247037 181.29834,61.9975586 L180.657227,65 L179.59082,65 L181.685547,55.1230469 L182.751953,55.1230469 C182.675781,55.4700538 182.602784,55.8064762 182.532959,56.1323242 C182.463134,56.4581722 182.391195,56.789305 182.317139,57.1257324 C182.243082,57.4621599 182.162679,57.8144513 182.075928,58.1826172 C181.989176,58.5507831 181.888672,58.9506814 181.774414,59.3823242 L181.844238,59.3823242 C182.242027,58.8618138 182.63452,58.4894217 183.021729,58.2651367 C183.408937,58.0408517 183.814125,57.9287109 184.237305,57.9287109 C184.791669,57.9287109 185.220132,58.0810532 185.522705,58.3857422 C185.825278,58.6904312 185.976562,59.1220675 185.976562,59.6806641 C185.976562,59.9430352 185.927898,60.2942686 185.830566,60.734375 C185.665527,61.5511109 185.358726,62.9729716 184.910156,65 L183.84375,65 Z M191.511719,65 L190.718262,58.0429688 L191.784668,58.0429688 L192.190918,61.934082 C192.292481,63.0258844 192.343262,63.7918272 192.343262,64.2319336 L192.381348,64.2319336 C192.918785,63.0681908 193.297525,62.2832052 193.517578,61.8769531 L195.580566,58.0429688 L196.710449,58.0429688 L192.958984,65 L191.511719,65 Z M199.224121,65.1269531 C198.445471,65.1269531 197.833987,64.8963239 197.389648,64.4350586 C196.94531,63.9737933 196.723145,63.3348023 196.723145,62.5180664 C196.723145,61.7224895 196.880776,60.9597204 197.196045,60.2297363 C197.511313,59.4997522 197.929197,58.9316427 198.449707,58.5253906 C198.970217,58.1191386 199.543617,57.9160156 200.169922,57.9160156 C200.817386,57.9160156 201.304035,58.0567206 201.629883,58.3381348 C201.955731,58.6195489 202.118652,59.0120418 202.118652,59.515625 C202.118652,60.2773476 201.767419,60.8750792 201.064941,61.3088379 C200.362464,61.7425966 199.357428,61.9594727 198.049805,61.9594727 L197.840332,61.9594727 L197.814941,62.4672852 C197.814941,63.0216499 197.945067,63.4543441 198.205322,63.7653809 C198.465577,64.0764176 198.86865,64.2319336 199.414551,64.2319336 C199.681154,64.2319336 199.955158,64.193848 200.236572,64.1176758 C200.517986,64.0415035 200.868162,63.9018565 201.287109,63.6987305 L201.287109,64.6254883 C200.889321,64.8116871 200.538087,64.9418128 200.233398,65.0158691 C199.928709,65.0899255 199.592287,65.1269531 199.224121,65.1269531 Z M200.106445,58.8237305 C199.670571,58.8237305 199.261151,59.0226217 198.878174,59.4204102 C198.495197,59.8181986 198.202149,60.3704392 197.999023,61.0771484 L198.075195,61.0771484 C199.040044,61.0771484 199.779538,60.9512545 200.293701,60.6994629 C200.807864,60.4476713 201.064941,60.0826847 201.064941,59.6044922 C201.064941,59.3802072 200.987712,59.1940112 200.833252,59.0458984 C200.678792,58.8977857 200.436525,58.8237305 200.106445,58.8237305 Z M207.285645,57.9160156 C207.577638,57.9160156 207.831542,57.9456377 208.047363,58.0048828 L207.818848,58.9570312 C207.594563,58.902018 207.372397,58.8745117 207.152344,58.8745117 C206.767251,58.8745117 206.406496,59.0014636 206.070068,59.2553711 C205.733641,59.5092786 205.439536,59.86157 205.187744,60.3122559 C204.935953,60.7629417 204.750814,61.2633436 204.632324,61.8134766 L203.953125,65 L202.886719,65 L204.37207,58.0429688 L205.254395,58.0429688 L205.114746,59.331543 L205.178223,59.331543 C205.482912,58.9295227 205.7347,58.6407073 205.933594,58.4650879 C206.132488,58.2894685 206.340901,58.1540532 206.558838,58.0588379 C206.776775,57.9636226 207.019042,57.9160156 207.285645,57.9160156 Z M210.783203,65.1269531 C210.004553,65.1269531 209.393069,64.8963239 208.94873,64.4350586 C208.504392,63.9737933 208.282227,63.3348023 208.282227,62.5180664 C208.282227,61.7224895 208.439858,60.9597204 208.755127,60.2297363 C209.070395,59.4997522 209.488279,58.9316427 210.008789,58.5253906 C210.529299,58.1191386 211.102699,57.9160156 211.729004,57.9160156 C212.376468,57.9160156 212.863117,58.0567206 213.188965,58.3381348 C213.514813,58.6195489 213.677734,59.0120418 213.677734,59.515625 C213.677734,60.2773476 213.326501,60.8750792 212.624023,61.3088379 C211.921546,61.7425966 210.91651,61.9594727 209.608887,61.9594727 L209.399414,61.9594727 L209.374023,62.4672852 C209.374023,63.0216499 209.504149,63.4543441 209.764404,63.7653809 C210.02466,64.0764176 210.427732,64.2319336 210.973633,64.2319336 C211.240236,64.2319336 211.51424,64.193848 211.795654,64.1176758 C212.077068,64.0415035 212.427244,63.9018565 212.846191,63.6987305 L212.846191,64.6254883 C212.448403,64.8116871 212.097169,64.9418128 211.79248,65.0158691 C211.487791,65.0899255 211.151369,65.1269531 210.783203,65.1269531 Z M211.665527,58.8237305 C211.229653,58.8237305 210.820233,59.0226217 210.437256,59.4204102 C210.054279,59.8181986 209.761231,60.3704392 209.558105,61.0771484 L209.634277,61.0771484 C210.599126,61.0771484 211.33862,60.9512545 211.852783,60.6994629 C212.366946,60.4476713 212.624023,60.0826847 212.624023,59.6044922 C212.624023,59.3802072 212.546794,59.1940112 212.392334,59.0458984 C212.237874,58.8977857 211.995607,58.8237305 211.665527,58.8237305 Z M215.512207,65 L214.445801,65 L215.931152,58.0429688 L216.997559,58.0429688 L215.512207,65 Z M216.229492,56.265625 C216.229492,56.0286446 216.2972,55.8350431 216.432617,55.6848145 C216.568035,55.5345858 216.743651,55.4594727 216.959473,55.4594727 C217.33187,55.4594727 217.518066,55.6499004 217.518066,56.0307617 C217.518066,56.2635103 217.447185,56.4602857 217.30542,56.6210938 C217.163655,56.7819018 216.999675,56.8623047 216.813477,56.8623047 C216.644205,56.8623047 216.504558,56.810466 216.394531,56.7067871 C216.284505,56.6031082 216.229492,56.4560556 216.229492,56.265625 Z M221.999512,65 L222.938965,60.6074219 C223.023601,60.1673155 223.065918,59.8626311 223.065918,59.6933594 C223.065918,59.4267565 222.990805,59.2130542 222.840576,59.0522461 C222.690348,58.891438 222.450197,58.8110352 222.120117,58.8110352 C221.743488,58.8110352 221.376385,58.937987 221.018799,59.1918945 C220.661212,59.4458021 220.345949,59.8076148 220.072998,60.2773438 C219.800047,60.7470727 219.593751,61.3162401 219.454102,61.9848633 L218.812988,65 L217.746582,65 L219.231934,58.0429688 L220.114258,58.0429688 L219.974609,59.331543 L220.038086,59.331543 C220.444338,58.8152643 220.836831,58.4502778 221.215576,58.2365723 C221.594322,58.0228668 221.986814,57.9160156 222.393066,57.9160156 C222.930504,57.9160156 223.354735,58.0630682 223.665771,58.3571777 C223.976808,58.6512873 224.132324,59.0628229 224.132324,59.5917969 C224.132324,59.9261084 224.083659,60.306964 223.986328,60.734375 L223.078613,65 L221.999512,65 Z M227.382324,64.2573242 C227.615073,64.2573242 227.919757,64.2023117 228.296387,64.0922852 L228.296387,64.9111328 C228.152506,64.9703779 227.974773,65.0211586 227.763184,65.0634766 C227.551594,65.1057945 227.382325,65.1269531 227.255371,65.1269531 C226.726397,65.1269531 226.321209,65.0010592 226.039795,64.7492676 C225.758381,64.497476 225.617676,64.12191 225.617676,63.6225586 C225.617676,63.3432603 225.655761,63.0258807 225.731934,62.6704102 L226.538086,58.8491211 L225.446289,58.8491211 L225.535156,58.3857422 L226.709473,57.890625 L227.50293,56.4433594 L228.125,56.4433594 L227.775879,58.0429688 L229.515137,58.0429688 L229.350098,58.8491211 L227.617188,58.8491211 L226.79834,62.6831055 C226.722168,63.0512714 226.684082,63.3305655 226.684082,63.5209961 C226.684082,63.7579764 226.745442,63.9399408 226.868164,64.0668945 C226.990886,64.1938483 227.162271,64.2573242 227.382324,64.2573242 Z M229.362793,64.5302734 C229.362793,64.2044255 229.448485,63.9452321 229.619873,63.7526855 C229.791261,63.560139 230.027179,63.4638672 230.327637,63.4638672 C230.509604,63.4638672 230.656656,63.5188797 230.768799,63.6289062 C230.880941,63.7389328 230.937012,63.9060861 230.937012,64.1303711 C230.937012,64.4308283 230.852377,64.6815582 230.683105,64.8825684 C230.513834,65.0835785 230.28532,65.184082 229.997559,65.184082 C229.802896,65.184082 229.648438,65.1290696 229.53418,65.019043 C229.419921,64.9090164 229.362793,64.7460948 229.362793,64.5302734 Z" id="Alles-Wichtige-endli" fill="#565656"></path>
            <path d="M51.5507812,55.6484375 C50.7421835,55.6484375 50.0097689,55.5253919 49.3535156,55.2792969 L49.3535156,52.8007812 C50.1035194,53.058595 50.7597628,53.1875 51.3222656,53.1875 C52.2128951,53.1875 52.8984351,52.8242224 53.3789062,52.0976562 C53.8593774,51.3710901 54.2460923,50.3339911 54.5390625,48.9863281 L58.5292969,29.9667969 L55.1367188,29.9667969 L55.3652344,28.7890625 L58.9863281,27.6289062 L59.390625,25.8710938 C59.9296902,23.527332 60.676753,21.8720751 61.6318359,20.9052734 C62.5869188,19.9384717 64.0019437,19.4550781 65.8769531,19.4550781 C66.3457055,19.4550781 66.9199185,19.5224603 67.5996094,19.6572266 C68.2793003,19.7919929 68.8066388,19.9414054 69.1816406,20.1054688 L68.4257812,22.3730469 C67.5351518,22.0332014 66.7324254,21.8632812 66.0175781,21.8632812 C64.9980418,21.8632812 64.215823,22.1474581 63.6708984,22.7158203 C63.1259738,23.2841825 62.6835954,24.3242112 62.34375,25.8359375 L61.9042969,27.734375 L66.0878906,27.734375 L65.6484375,29.9667969 L61.4824219,29.9667969 L57.4042969,49.2675781 C56.9472633,51.4824329 56.2441454,53.0996043 55.2949219,54.1191406 C54.3456984,55.138677 53.097664,55.6484375 51.5507812,55.6484375 Z M68.671875,47 L65.71875,47 L69.8320312,27.734375 L72.7851562,27.734375 L68.671875,47 Z M70.6582031,22.8125 C70.6582031,22.1562467 70.8457013,21.6201193 71.2207031,21.2041016 C71.595705,20.7880839 72.0820283,20.5800781 72.6796875,20.5800781 C73.7109427,20.5800781 74.2265625,21.1074166 74.2265625,22.1621094 C74.2265625,22.8066438 74.0302754,23.3515603 73.6376953,23.796875 C73.2451152,24.2421897 72.7910182,24.4648438 72.2753906,24.4648438 C71.8066383,24.4648438 71.4199234,24.3212905 71.1152344,24.0341797 C70.8105454,23.7470689 70.6582031,23.3398464 70.6582031,22.8125 Z M86.671875,47 L89.2734375,34.8359375 C89.5078137,33.6171814 89.625,32.7734398 89.625,32.3046875 C89.625,31.5664026 89.4169943,30.9746116 89.0009766,30.5292969 C88.5849589,30.0839821 87.9199264,29.8613281 87.0058594,29.8613281 C85.9628854,29.8613281 84.946294,30.2128871 83.9560547,30.9160156 C82.9658154,31.6191441 82.0927772,32.6210872 81.3369141,33.921875 C80.5810509,35.2226628 80.0097676,36.7988189 79.6230469,38.6503906 L77.8476562,47 L74.8945312,47 L79.0078125,27.734375 L81.4511719,27.734375 L81.0644531,31.3027344 L81.2402344,31.3027344 C82.36524,29.8730397 83.4521432,28.8623076 84.5009766,28.2705078 C85.5498099,27.678708 86.6367131,27.3828125 87.7617188,27.3828125 C89.2500074,27.3828125 90.4248004,27.790035 91.2861328,28.6044922 C92.1474652,29.4189494 92.578125,30.5585864 92.578125,32.0234375 C92.578125,32.9492234 92.4433607,34.0039003 92.1738281,35.1875 L89.6601562,47 L86.671875,47 Z M98.0273438,21.3007812 L105.65625,21.3007812 C109.19533,21.3007812 111.752922,21.8164011 113.329102,22.8476562 C114.905281,23.8789114 115.693359,25.5078014 115.693359,27.734375 C115.693359,29.2343825 115.306644,30.4824169 114.533203,31.4785156 C113.759762,32.4746144 112.646492,33.1015612 111.193359,33.359375 L111.193359,33.5351562 C112.998056,33.8750017 114.325191,34.5458934 115.174805,35.5478516 C116.024418,36.5498097 116.449219,37.9062414 116.449219,39.6171875 C116.449219,41.9257928 115.643563,43.7333919 114.032227,45.0400391 C112.42089,46.3466862 110.179702,47 107.308594,47 L98.0273438,47 L98.0273438,21.3007812 Z M102.228516,31.9179688 L106.271484,31.9179688 C108.029306,31.9179688 109.312496,31.6396512 110.121094,31.0830078 C110.929692,30.5263644 111.333984,29.5800848 111.333984,28.2441406 C111.333984,27.0371033 110.897465,26.1640652 110.024414,25.625 C109.151363,25.0859348 107.765634,24.8164062 105.867188,24.8164062 L102.228516,24.8164062 L102.228516,31.9179688 Z M102.228516,35.328125 L102.228516,43.4667969 L106.693359,43.4667969 C108.451181,43.4667969 109.778316,43.1298862 110.674805,42.4560547 C111.571294,41.7822232 112.019531,40.7187573 112.019531,39.265625 C112.019531,37.9296808 111.562505,36.9394563 110.648438,36.2949219 C109.73437,35.6503874 108.345712,35.328125 106.482422,35.328125 L102.228516,35.328125 Z M133.517578,47 L132.691406,44.2929688 L132.550781,44.2929688 C131.613277,45.4765684 130.669927,46.2822244 129.720703,46.7099609 C128.77148,47.1376975 127.552742,47.3515625 126.064453,47.3515625 C124.154287,47.3515625 122.663091,46.8359427 121.59082,45.8046875 C120.518549,44.7734323 119.982422,43.3144626 119.982422,41.4277344 C119.982422,39.4238181 120.726555,37.9121145 122.214844,36.8925781 C123.703132,35.8730418 125.970688,35.3164067 129.017578,35.2226562 L132.375,35.1171875 L132.375,34.0800781 C132.375,32.8378844 132.084964,31.9091828 131.504883,31.2939453 C130.924802,30.6787079 130.025397,30.3710938 128.806641,30.3710938 C127.810542,30.3710938 126.855473,30.5175767 125.941406,30.8105469 C125.027339,31.1035171 124.148442,31.4492168 123.304688,31.8476562 L121.96875,28.8945312 C123.023443,28.3437472 124.177728,27.9248061 125.431641,27.6376953 C126.685553,27.3505845 127.869135,27.2070312 128.982422,27.2070312 C131.45509,27.2070312 133.321283,27.7460884 134.581055,28.8242188 C135.840827,29.9023491 136.470703,31.5956916 136.470703,33.9042969 L136.470703,47 L133.517578,47 Z M127.365234,44.1875 C128.865242,44.1875 130.069331,43.7685589 130.977539,42.9306641 C131.885747,42.0927692 132.339844,40.9179763 132.339844,39.40625 L132.339844,37.71875 L129.84375,37.8242188 C127.898428,37.8945316 126.483403,38.2197237 125.598633,38.7998047 C124.713863,39.3798857 124.271484,40.2675721 124.271484,41.4628906 C124.271484,42.3300825 124.529294,43.0009742 125.044922,43.4755859 C125.560549,43.9501977 126.333979,44.1875 127.365234,44.1875 Z M146.367188,47 L142.236328,47 L142.236328,19.6484375 L146.367188,19.6484375 L146.367188,47 Z M164.4375,47 L163.611328,44.2929688 L163.470703,44.2929688 C162.533198,45.4765684 161.589848,46.2822244 160.640625,46.7099609 C159.691402,47.1376975 158.472664,47.3515625 156.984375,47.3515625 C155.074209,47.3515625 153.583013,46.8359427 152.510742,45.8046875 C151.438471,44.7734323 150.902344,43.3144626 150.902344,41.4277344 C150.902344,39.4238181 151.646477,37.9121145 153.134766,36.8925781 C154.623054,35.8730418 156.89061,35.3164067 159.9375,35.2226562 L163.294922,35.1171875 L163.294922,34.0800781 C163.294922,32.8378844 163.004886,31.9091828 162.424805,31.2939453 C161.844724,30.6787079 160.945319,30.3710938 159.726562,30.3710938 C158.730464,30.3710938 157.775395,30.5175767 156.861328,30.8105469 C155.947261,31.1035171 155.068364,31.4492168 154.224609,31.8476562 L152.888672,28.8945312 C153.943365,28.3437472 155.09765,27.9248061 156.351562,27.6376953 C157.605475,27.3505845 158.789057,27.2070312 159.902344,27.2070312 C162.375012,27.2070312 164.241205,27.7460884 165.500977,28.8242188 C166.760748,29.9023491 167.390625,31.5956916 167.390625,33.9042969 L167.390625,47 L164.4375,47 Z M158.285156,44.1875 C159.785164,44.1875 160.989253,43.7685589 161.897461,42.9306641 C162.805669,42.0927692 163.259766,40.9179763 163.259766,39.40625 L163.259766,37.71875 L160.763672,37.8242188 C158.81835,37.8945316 157.403325,38.2197237 156.518555,38.7998047 C155.633785,39.3798857 155.191406,40.2675721 155.191406,41.4628906 C155.191406,42.3300825 155.449216,43.0009742 155.964844,43.4755859 C156.480471,43.9501977 157.253901,44.1875 158.285156,44.1875 Z M190.259766,47 L186.111328,47 L186.111328,35.046875 C186.111328,33.5468675 185.809573,32.4277381 185.206055,31.6894531 C184.602536,30.9511682 183.644538,30.5820312 182.332031,30.5820312 C180.585929,30.5820312 179.308598,31.0976511 178.5,32.1289062 C177.691402,33.1601614 177.287109,34.8886597 177.287109,37.3144531 L177.287109,47 L173.15625,47 L173.15625,27.5585938 L176.390625,27.5585938 L176.970703,30.1074219 L177.181641,30.1074219 C177.767581,29.181636 178.599604,28.4667994 179.677734,27.9628906 C180.755865,27.4589819 181.951165,27.2070312 183.263672,27.2070312 C187.927758,27.2070312 190.259766,29.5800544 190.259766,34.3261719 L190.259766,47 Z M203.847656,47.3515625 C200.906235,47.3515625 198.670906,46.4931726 197.141602,44.7763672 C195.612297,43.0595617 194.847656,40.5957192 194.847656,37.3847656 C194.847656,34.115218 195.647453,31.6015713 197.24707,29.84375 C198.846688,28.0859287 201.158188,27.2070312 204.181641,27.2070312 C206.232432,27.2070312 208.078117,27.5878868 209.71875,28.3496094 L208.470703,31.671875 C206.724601,30.9921841 205.283209,30.6523438 204.146484,30.6523438 C200.783186,30.6523438 199.101562,32.8847433 199.101562,37.3496094 C199.101562,39.5293078 199.520504,41.1669867 200.358398,42.2626953 C201.196293,43.3584039 202.42382,43.90625 204.041016,43.90625 C205.880869,43.90625 207.621086,43.4492233 209.261719,42.5351562 L209.261719,46.1386719 C208.523434,46.5722678 207.735356,46.8828116 206.897461,47.0703125 C206.059566,47.2578134 205.042975,47.3515625 203.847656,47.3515625 Z M222.322266,47.3515625 C219.298813,47.3515625 216.934579,46.4697354 215.229492,44.7060547 C213.524406,42.942374 212.671875,40.5136873 212.671875,37.4199219 C212.671875,34.2441247 213.462883,31.748056 215.044922,29.9316406 C216.626961,28.1152253 218.800767,27.2070312 221.566406,27.2070312 C224.132825,27.2070312 226.160149,27.9863203 227.648438,29.5449219 C229.136726,31.1035234 229.880859,33.2480332 229.880859,35.9785156 L229.880859,38.2109375 L216.925781,38.2109375 C216.984375,40.0976657 217.494136,41.5478465 218.455078,42.5615234 C219.41602,43.5752004 220.769523,44.0820312 222.515625,44.0820312 C223.664068,44.0820312 224.733393,43.9736339 225.723633,43.7568359 C226.713872,43.540038 227.777338,43.17969 228.914062,42.6757812 L228.914062,46.0332031 C227.906245,46.5136743 226.886724,46.8535146 225.855469,47.0527344 C224.824214,47.2519541 223.646491,47.3515625 222.322266,47.3515625 Z M221.566406,30.3359375 C220.2539,30.3359375 219.202152,30.751949 218.411133,31.5839844 C217.620113,32.4160198 217.148438,33.6288983 216.996094,35.2226562 L225.820312,35.2226562 C225.796875,33.6171795 225.41016,32.4013713 224.660156,31.5751953 C223.910153,30.7490193 222.878913,30.3359375 221.566406,30.3359375 Z" id="finBalance" fill="#03ACEF"></path>
            <g id="noun_694869_cc" transform="translate(4.000000, 18.000000)" fill-rule="nonzero" fill="#00A4E5">
                <path d="M0,16.4444444 C0.412003786,3.73905556 4.8101442,0 18.50103,0 C32.1919158,0 36.5879962,3.73905556 37,16.4444444 L0,16.4444444 Z M37,20.5555556 C36.5879962,33.2609444 32.2001559,37 18.50103,37 C4.80190413,37 0.405823729,33.2588889 0,20.5555556 L37,20.5555556 Z" id="Shape"></path>
            </g>
        </g>
    </g>
</svg>