<?xml version="1.0" encoding="UTF-8"?>
<svg width="249px" height="77px" viewBox="0 0 249 77" version="1.1" xmlns="http://www.w3.org/2000/svg" xmlns:xlink="http://www.w3.org/1999/xlink">
    <!-- Generator: Sketch 47 (45396) - http://www.bohemiancoding.com/sketch -->
    <title>logo</title>
    <desc>Created with Sketch.</desc>
    <defs></defs>
    <g id="Page-1" stroke="none" stroke-width="1" fill="none" fill-rule="evenodd">
        <g id="logo" fill="#FFFFFF">
            <path d="M78.7827148,62.0483398 L75.6342773,62.0483398 L74.0791016,65 L72.8793945,65 L77.9511719,55.7197266 L79.0556641,55.7197266 L80.2236328,65 L79.1445312,65 L78.7827148,62.0483398 Z M78.668457,61.0581055 L78.4462891,59.1601562 C78.3447261,58.4026655 78.283366,57.662113 78.262207,56.9384766 C78.1056307,57.3108743 77.9353037,57.6811505 77.7512207,58.0493164 C77.5671378,58.4174823 77.0392296,59.420402 76.1674805,61.0581055 L78.668457,61.0581055 Z M82.2675781,65 L81.2011719,65 L83.3085938,55.1230469 L84.375,55.1230469 L82.2675781,65 Z M85.5683594,65 L84.5019531,65 L86.609375,55.1230469 L87.6757812,55.1230469 L85.5683594,65 Z M90.5639648,65.1269531 C89.7853151,65.1269531 89.1738303,64.8963239 88.7294922,64.4350586 C88.285154,63.9737933 88.0629883,63.3348023 88.0629883,62.5180664 C88.0629883,61.7224895 88.2206202,60.9597204 88.5358887,60.2297363 C88.8511572,59.4997522 89.2690404,58.9316427 89.7895508,58.5253906 C90.3100612,58.1191386 90.8834604,57.9160156 91.5097656,57.9160156 C92.1572298,57.9160156 92.6438786,58.0567206 92.9697266,58.3381348 C93.2955745,58.6195489 93.4584961,59.0120418 93.4584961,59.515625 C93.4584961,60.2773476 93.1072626,60.8750792 92.4047852,61.3088379 C91.7023077,61.7425966 90.6972722,61.9594727 89.3896484,61.9594727 L89.1801758,61.9594727 L89.1547852,62.4672852 C89.1547852,63.0216499 89.2849108,63.4543441 89.545166,63.7653809 C89.8054212,64.0764176 90.2084934,64.2319336 90.7543945,64.2319336 C91.0209974,64.2319336 91.2950018,64.193848 91.576416,64.1176758 C91.8578302,64.0415035 92.2080057,63.9018565 92.6269531,63.6987305 L92.6269531,64.6254883 C92.2291647,64.8116871 91.8779312,64.9418128 91.5732422,65.0158691 C91.2685532,65.0899255 90.9321307,65.1269531 90.5639648,65.1269531 Z M91.4462891,58.8237305 C91.0104145,58.8237305 90.6009948,59.0226217 90.2180176,59.4204102 C89.8350404,59.8181986 89.5419932,60.3704392 89.3388672,61.0771484 L89.4150391,61.0771484 C90.3798876,61.0771484 91.1193822,60.9512545 91.6335449,60.6994629 C92.1477076,60.4476713 92.4047852,60.0826847 92.4047852,59.6044922 C92.4047852,59.3802072 92.3275561,59.1940112 92.1730957,59.0458984 C92.0186353,58.8977857 91.7763688,58.8237305 91.4462891,58.8237305 Z M98.5175781,63.0258789 C98.5175781,63.6860385 98.2837751,64.2012514 97.8161621,64.5715332 C97.3485491,64.941815 96.6894574,65.1269531 95.8388672,65.1269531 C95.1236943,65.1269531 94.4783557,64.9809585 93.902832,64.6889648 L93.902832,63.6860352 C94.1990575,63.8637704 94.518553,64.0013016 94.8613281,64.0986328 C95.2041033,64.195964 95.5214829,64.2446289 95.8134766,64.2446289 C96.3466824,64.2446289 96.7486966,64.1388357 97.0195312,63.9272461 C97.2903659,63.7156565 97.4257812,63.4448259 97.4257812,63.1147461 C97.4257812,62.873534 97.351726,62.670411 97.2036133,62.5053711 C97.0555006,62.3403312 96.7360051,62.1139337 96.2451172,61.8261719 C95.6949842,61.5172511 95.3056652,61.2146825 95.0771484,60.918457 C94.8486317,60.6222316 94.734375,60.2709981 94.734375,59.8647461 C94.734375,59.2807588 94.9480773,58.809979 95.3754883,58.4523926 C95.8028993,58.0948062 96.3657192,57.9160156 97.0639648,57.9160156 C97.7876013,57.9160156 98.4858365,58.0725896 99.1586914,58.3857422 L98.815918,59.2553711 L98.4604492,59.0966797 C98.0330382,58.9147126 97.5675481,58.8237305 97.0639648,58.8237305 C96.6704082,58.8237305 96.361492,58.9157706 96.137207,59.0998535 C95.9129221,59.2839365 95.8007812,59.5219712 95.8007812,59.8139648 C95.8007812,60.0509452 95.8758944,60.2540682 96.026123,60.4233398 C96.1763517,60.5926115 96.4863258,60.8105455 96.9560547,61.0771484 C97.4088564,61.331056 97.7336416,61.54899 97.9304199,61.730957 C98.1271982,61.9129241 98.2742508,62.1086415 98.371582,62.3181152 C98.4689132,62.5275889 98.5175781,62.7635078 98.5175781,63.0258789 Z M110.774902,65 L109.695801,65 L109.384766,58.8745117 C109.350911,58.298988 109.333984,57.7023143 109.333984,57.0844727 L109.295898,57.0844727 C109.190104,57.3891617 109.061036,57.7160627 108.908691,58.0651855 C108.756347,58.4143084 107.689951,60.7258901 105.709473,65 L104.60498,65 L104.211426,55.7197266 L105.290527,55.7197266 L105.487305,61.4389648 L105.5,61.9975586 C105.5,62.4122742 105.478841,62.9581672 105.436523,63.6352539 L105.474609,63.6352539 C105.851239,62.6069285 106.181314,61.7965524 106.464844,61.2041016 L109.035645,55.7197266 L110.165527,55.7197266 L110.438477,61.1787109 C110.476563,61.8261751 110.495605,62.4693978 110.495605,63.1083984 L110.489258,63.6352539 L110.546387,63.6352539 C110.863771,62.6873325 111.140949,61.9383166 111.37793,61.3881836 L113.834473,55.7197266 L114.989746,55.7197266 L110.774902,65 Z M115.313477,65 L114.24707,65 L115.732422,58.0429688 L116.798828,58.0429688 L115.313477,65 Z M116.030762,56.265625 C116.030762,56.0286446 116.098469,55.8350431 116.233887,55.6848145 C116.369304,55.5345858 116.544921,55.4594727 116.760742,55.4594727 C117.13314,55.4594727 117.319336,55.6499004 117.319336,56.0307617 C117.319336,56.2635103 117.248454,56.4602857 117.106689,56.6210938 C116.964924,56.7819018 116.800945,56.8623047 116.614746,56.8623047 C116.445474,56.8623047 116.305827,56.810466 116.195801,56.7067871 C116.085774,56.6031082 116.030762,56.4560556 116.030762,56.265625 Z M120.385254,65.1269531 C119.564286,65.1269531 118.927411,64.9005556 118.474609,64.4477539 C118.021808,63.9949522 117.79541,63.3559612 117.79541,62.5307617 C117.79541,61.6844033 117.951984,60.9036494 118.265137,60.1884766 C118.578289,59.4733037 119.010984,58.9157735 119.563232,58.5158691 C120.115481,58.1159648 120.736487,57.9160156 121.42627,57.9160156 C122.006025,57.9160156 122.573077,58.0239247 123.127441,58.2397461 L122.829102,59.1347656 C122.321287,58.9189442 121.857912,58.8110352 121.438965,58.8110352 C120.965004,58.8110352 120.53231,58.9728988 120.140869,59.2966309 C119.749428,59.6203629 119.442628,60.071042 119.220459,60.6486816 C118.99829,61.2263212 118.887207,61.853675 118.887207,62.5307617 C118.887207,63.0724311 119.027912,63.4934881 119.309326,63.7939453 C119.59074,64.0944025 119.979001,64.2446289 120.474121,64.2446289 C120.77881,64.2446289 121.066568,64.2023116 121.337402,64.1176758 C121.608237,64.0330399 121.874836,63.9335943 122.137207,63.8193359 L122.137207,64.7270508 C121.612465,64.9936537 121.028486,65.1269531 120.385254,65.1269531 Z M127.65332,65 L128.592773,60.6074219 C128.668946,60.2096334 128.707031,59.9239918 128.707031,59.7504883 C128.707031,59.1241831 128.395999,58.8110352 127.773926,58.8110352 C127.397296,58.8110352 127.030194,58.9358711 126.672607,59.1855469 C126.315021,59.4352226 125.999757,59.7980933 125.726807,60.2741699 C125.453856,60.7502465 125.247559,61.3247037 125.10791,61.9975586 L124.466797,65 L123.400391,65 L125.495117,55.1230469 L126.561523,55.1230469 C126.485351,55.4700538 126.412354,55.8064762 126.342529,56.1323242 C126.272705,56.4581722 126.200765,56.789305 126.126709,57.1257324 C126.052653,57.4621599 125.97225,57.8144513 125.885498,58.1826172 C125.798746,58.5507831 125.698243,58.9506814 125.583984,59.3823242 L125.653809,59.3823242 C126.051597,58.8618138 126.44409,58.4894217 126.831299,58.2651367 C127.218508,58.0408517 127.623696,57.9287109 128.046875,57.9287109 C128.60124,57.9287109 129.029702,58.0810532 129.332275,58.3857422 C129.634849,58.6904312 129.786133,59.1220675 129.786133,59.6806641 C129.786133,59.9430352 129.737468,60.2942686 129.640137,60.734375 C129.475097,61.5511109 129.168297,62.9729716 128.719727,65 L127.65332,65 Z M133.036133,64.2573242 C133.268881,64.2573242 133.573566,64.2023117 133.950195,64.0922852 L133.950195,64.9111328 C133.806314,64.9703779 133.628582,65.0211586 133.416992,65.0634766 C133.205403,65.1057945 133.036133,65.1269531 132.90918,65.1269531 C132.380206,65.1269531 131.975018,65.0010592 131.693604,64.7492676 C131.412189,64.497476 131.271484,64.12191 131.271484,63.6225586 C131.271484,63.3432603 131.30957,63.0258807 131.385742,62.6704102 L132.191895,58.8491211 L131.100098,58.8491211 L131.188965,58.3857422 L132.363281,57.890625 L133.156738,56.4433594 L133.778809,56.4433594 L133.429688,58.0429688 L135.168945,58.0429688 L135.003906,58.8491211 L133.270996,58.8491211 L132.452148,62.6831055 C132.375976,63.0512714 132.337891,63.3305655 132.337891,63.5209961 C132.337891,63.7579764 132.399251,63.9399408 132.521973,64.0668945 C132.644695,64.1938483 132.81608,64.2573242 133.036133,64.2573242 Z M136.18457,65 L135.118164,65 L136.603516,58.0429688 L137.669922,58.0429688 L136.18457,65 Z M136.901855,56.265625 C136.901855,56.0286446 136.969563,55.8350431 137.10498,55.6848145 C137.240398,55.5345858 137.416015,55.4594727 137.631836,55.4594727 C138.004234,55.4594727 138.19043,55.6499004 138.19043,56.0307617 C138.19043,56.2635103 138.119548,56.4602857 137.977783,56.6210938 C137.836018,56.7819018 137.672039,56.8623047 137.48584,56.8623047 C137.316568,56.8623047 137.176921,56.810466 137.066895,56.7067871 C136.956868,56.6031082 136.901855,56.4560556 136.901855,56.265625 Z M145.026855,58.0429688 L144.868164,58.722168 L143.528809,58.8745117 C143.702312,59.1368828 143.789062,59.4711894 143.789062,59.8774414 C143.789062,60.6857137 143.542564,61.3299943 143.049561,61.8103027 C142.556557,62.2906111 141.897465,62.5307617 141.072266,62.5307617 C140.839517,62.5307617 140.661784,62.5138348 140.539062,62.4799805 C139.950843,62.7042654 139.656738,62.9814437 139.656738,63.3115234 C139.656738,63.4850269 139.726562,63.6003415 139.866211,63.6574707 C140.00586,63.7145999 140.208983,63.760091 140.475586,63.7939453 L141.218262,63.8828125 C141.984216,63.9759119 142.53963,64.162108 142.884521,64.4414062 C143.229413,64.7207045 143.401855,65.1311822 143.401855,65.6728516 C143.401855,66.4515013 143.092939,67.0545226 142.475098,67.4819336 C141.857256,67.9093446 140.987636,68.1230469 139.866211,68.1230469 C139.045243,68.1230469 138.402021,67.9675309 137.936523,67.6564941 C137.471026,67.3454574 137.238281,66.9064156 137.238281,66.3393555 C137.238281,65.8950173 137.390623,65.50993 137.695312,65.184082 C138.000002,64.858234 138.492998,64.5810558 139.174316,64.3525391 C138.844237,64.1790356 138.679199,63.923016 138.679199,63.5844727 C138.679199,63.292479 138.787108,63.0417491 139.00293,62.8322754 C139.218751,62.6228017 139.519204,62.4270842 139.904297,62.2451172 C139.637694,62.1096998 139.41976,61.9097507 139.250488,61.6452637 C139.081217,61.3807767 138.996582,61.0729184 138.996582,60.7216797 C138.996582,59.900712 139.249428,59.2278672 139.755127,58.703125 C140.260826,58.1783828 140.907223,57.9160156 141.694336,57.9160156 C142.024416,57.9160156 142.350259,57.9583329 142.671875,58.0429688 L145.026855,58.0429688 Z M138.266602,66.237793 C138.266602,66.563641 138.404133,66.8217764 138.679199,67.012207 C138.954266,67.2026377 139.362628,67.2978516 139.904297,67.2978516 C140.674483,67.2978516 141.276446,67.1634942 141.710205,66.8947754 C142.143964,66.6260566 142.36084,66.246259 142.36084,65.7553711 C142.36084,65.493 142.246583,65.2856453 142.018066,65.1333008 C141.78955,64.9809563 141.400231,64.8751631 140.850098,64.815918 L139.84082,64.7143555 C139.333005,64.8201503 138.943686,65.0063463 138.672852,65.2729492 C138.402017,65.5395521 138.266602,65.8611635 138.266602,66.237793 Z M140.03125,60.6835938 C140.03125,61.0432961 140.126464,61.3173005 140.316895,61.5056152 C140.507325,61.69393 140.771808,61.7880859 141.110352,61.7880859 C141.444663,61.7880859 141.736652,61.6992196 141.986328,61.5214844 C142.236004,61.3437491 142.42749,61.0993668 142.560791,60.7883301 C142.694092,60.4772934 142.760742,60.139813 142.760742,59.7758789 C142.760742,59.428872 142.667644,59.1643889 142.481445,58.9824219 C142.295246,58.8004548 142.028648,58.7094727 141.681641,58.7094727 C141.351561,58.7094727 141.062745,58.7951652 140.815186,58.9665527 C140.567626,59.1379403 140.375082,59.377033 140.237549,59.6838379 C140.100016,59.9906428 140.03125,60.3238914 140.03125,60.6835938 Z M147.680176,65.1269531 C146.901526,65.1269531 146.290041,64.8963239 145.845703,64.4350586 C145.401365,63.9737933 145.179199,63.3348023 145.179199,62.5180664 C145.179199,61.7224895 145.336831,60.9597204 145.6521,60.2297363 C145.967368,59.4997522 146.385251,58.9316427 146.905762,58.5253906 C147.426272,58.1191386 147.999671,57.9160156 148.625977,57.9160156 C149.273441,57.9160156 149.76009,58.0567206 150.085938,58.3381348 C150.411785,58.6195489 150.574707,59.0120418 150.574707,59.515625 C150.574707,60.2773476 150.223474,60.8750792 149.520996,61.3088379 C148.818519,61.7425966 147.813483,61.9594727 146.505859,61.9594727 L146.296387,61.9594727 L146.270996,62.4672852 C146.270996,63.0216499 146.401122,63.4543441 146.661377,63.7653809 C146.921632,64.0764176 147.324704,64.2319336 147.870605,64.2319336 C148.137208,64.2319336 148.411213,64.193848 148.692627,64.1176758 C148.974041,64.0415035 149.324217,63.9018565 149.743164,63.6987305 L149.743164,64.6254883 C149.345376,64.8116871 148.994142,64.9418128 148.689453,65.0158691 C148.384764,65.0899255 148.048342,65.1269531 147.680176,65.1269531 Z M148.5625,58.8237305 C148.126625,58.8237305 147.717206,59.0226217 147.334229,59.4204102 C146.951251,59.8181986 146.658204,60.3704392 146.455078,61.0771484 L146.53125,61.0771484 C147.496099,61.0771484 148.235593,60.9512545 148.749756,60.6994629 C149.263919,60.4476713 149.520996,60.0826847 149.520996,59.6044922 C149.520996,59.3802072 149.443767,59.1940112 149.289307,59.0458984 C149.134846,58.8977857 148.89258,58.8237305 148.5625,58.8237305 Z M157.468262,65.1269531 C156.689612,65.1269531 156.078127,64.8963239 155.633789,64.4350586 C155.189451,63.9737933 154.967285,63.3348023 154.967285,62.5180664 C154.967285,61.7224895 155.124917,60.9597204 155.440186,60.2297363 C155.755454,59.4997522 156.173337,58.9316427 156.693848,58.5253906 C157.214358,58.1191386 157.787757,57.9160156 158.414062,57.9160156 C159.061527,57.9160156 159.548175,58.0567206 159.874023,58.3381348 C160.199871,58.6195489 160.362793,59.0120418 160.362793,59.515625 C160.362793,60.2773476 160.01156,60.8750792 159.309082,61.3088379 C158.606605,61.7425966 157.601569,61.9594727 156.293945,61.9594727 L156.084473,61.9594727 L156.059082,62.4672852 C156.059082,63.0216499 156.189208,63.4543441 156.449463,63.7653809 C156.709718,64.0764176 157.11279,64.2319336 157.658691,64.2319336 C157.925294,64.2319336 158.199299,64.193848 158.480713,64.1176758 C158.762127,64.0415035 159.112303,63.9018565 159.53125,63.6987305 L159.53125,64.6254883 C159.133462,64.8116871 158.782228,64.9418128 158.477539,65.0158691 C158.17285,65.0899255 157.836428,65.1269531 157.468262,65.1269531 Z M158.350586,58.8237305 C157.914711,58.8237305 157.505292,59.0226217 157.122314,59.4204102 C156.739337,59.8181986 156.44629,60.3704392 156.243164,61.0771484 L156.319336,61.0771484 C157.284185,61.0771484 158.023679,60.9512545 158.537842,60.6994629 C159.052005,60.4476713 159.309082,60.0826847 159.309082,59.6044922 C159.309082,59.3802072 159.231853,59.1940112 159.077393,59.0458984 C158.922932,58.8977857 158.680666,58.8237305 158.350586,58.8237305 Z M165.383789,65 L166.323242,60.6074219 C166.407878,60.1673155 166.450195,59.8626311 166.450195,59.6933594 C166.450195,59.4267565 166.375082,59.2130542 166.224854,59.0522461 C166.074625,58.891438 165.834474,58.8110352 165.504395,58.8110352 C165.127765,58.8110352 164.760663,58.937987 164.403076,59.1918945 C164.04549,59.4458021 163.730226,59.8076148 163.457275,60.2773438 C163.184325,60.7470727 162.978028,61.3162401 162.838379,61.9848633 L162.197266,65 L161.130859,65 L162.616211,58.0429688 L163.498535,58.0429688 L163.358887,59.331543 L163.422363,59.331543 C163.828615,58.8152643 164.221108,58.4502778 164.599854,58.2365723 C164.978599,58.0228668 165.371092,57.9160156 165.777344,57.9160156 C166.314781,57.9160156 166.739012,58.0630682 167.050049,58.3571777 C167.361086,58.6512873 167.516602,59.0628229 167.516602,59.5917969 C167.516602,59.9261084 167.467937,60.306964 167.370605,60.734375 L166.462891,65 L165.383789,65 Z M172.31543,57.9287109 C173.136397,57.9287109 173.730955,58.3307251 174.099121,59.1347656 L174.162598,59.1347656 C174.234538,58.4788379 174.329752,57.8990911 174.448242,57.3955078 L174.943359,55.1230469 L175.99707,55.1230469 L173.902344,65 L173.02002,65 L173.159668,63.6733398 L173.108887,63.6733398 C172.681476,64.2023138 172.281577,64.5768218 171.90918,64.796875 C171.536782,65.0169282 171.151695,65.1269531 170.753906,65.1269531 C170.165687,65.1269531 169.706545,64.9195984 169.376465,64.5048828 C169.046385,64.0901672 168.881348,63.5146521 168.881348,62.7783203 C168.881348,61.8727168 169.03369,61.043298 169.338379,60.2900391 C169.643068,59.5367801 170.054604,58.9549174 170.572998,58.5444336 C171.091393,58.1339498 171.672197,57.9287109 172.31543,57.9287109 Z M171.109375,64.2446289 C171.507163,64.2446289 171.917641,64.0467956 172.34082,63.651123 C172.764,63.2554505 173.099364,62.7497589 173.346924,62.1340332 C173.594484,61.5183075 173.718262,60.8909537 173.718262,60.2519531 C173.718262,59.7822242 173.604005,59.4246432 173.375488,59.1791992 C173.146972,58.9337553 172.814781,58.8110352 172.378906,58.8110352 C171.951495,58.8110352 171.554771,58.985594 171.188721,59.3347168 C170.822671,59.6838396 170.528566,60.1747201 170.306396,60.807373 C170.084227,61.4400259 169.973145,62.1054653 169.973145,62.8037109 C169.973145,63.7643277 170.351884,64.2446289 171.109375,64.2446289 Z M177.19043,65 L176.124023,65 L178.231445,55.1230469 L179.297852,55.1230469 L177.19043,65 Z M180.503906,65 L179.4375,65 L180.922852,58.0429688 L181.989258,58.0429688 L180.503906,65 Z M181.221191,56.265625 C181.221191,56.0286446 181.288899,55.8350431 181.424316,55.6848145 C181.559734,55.5345858 181.73535,55.4594727 181.951172,55.4594727 C182.32357,55.4594727 182.509766,55.6499004 182.509766,56.0307617 C182.509766,56.2635103 182.438884,56.4602857 182.297119,56.6210938 C182.155354,56.7819018 181.991375,56.8623047 181.805176,56.8623047 C181.635904,56.8623047 181.496257,56.810466 181.38623,56.7067871 C181.276204,56.6031082 181.221191,56.4560556 181.221191,56.265625 Z M185.575684,65.1269531 C184.754716,65.1269531 184.117841,64.9005556 183.665039,64.4477539 C183.212237,63.9949522 182.98584,63.3559612 182.98584,62.5307617 C182.98584,61.6844033 183.142414,60.9036494 183.455566,60.1884766 C183.768719,59.4733037 184.201413,58.9157735 184.753662,58.5158691 C185.305911,58.1159648 185.926917,57.9160156 186.616699,57.9160156 C187.196455,57.9160156 187.763506,58.0239247 188.317871,58.2397461 L188.019531,59.1347656 C187.511716,58.9189442 187.048342,58.8110352 186.629395,58.8110352 C186.155434,58.8110352 185.72274,58.9728988 185.331299,59.2966309 C184.939858,59.6203629 184.633058,60.071042 184.410889,60.6486816 C184.18872,61.2263212 184.077637,61.853675 184.077637,62.5307617 C184.077637,63.0724311 184.218342,63.4934881 184.499756,63.7939453 C184.78117,64.0944025 185.169431,64.2446289 185.664551,64.2446289 C185.96924,64.2446289 186.256997,64.2023116 186.527832,64.1176758 C186.798667,64.0330399 187.065266,63.9335943 187.327637,63.8193359 L187.327637,64.7270508 C186.802895,64.9936537 186.218916,65.1269531 185.575684,65.1269531 Z M192.84375,65 L193.783203,60.6074219 C193.859375,60.2096334 193.897461,59.9239918 193.897461,59.7504883 C193.897461,59.1241831 193.586429,58.8110352 192.964355,58.8110352 C192.587726,58.8110352 192.220624,58.9358711 191.863037,59.1855469 C191.505451,59.4352226 191.190187,59.7980933 190.917236,60.2741699 C190.644286,60.7502465 190.437989,61.3247037 190.29834,61.9975586 L189.657227,65 L188.59082,65 L190.685547,55.1230469 L191.751953,55.1230469 C191.675781,55.4700538 191.602784,55.8064762 191.532959,56.1323242 C191.463134,56.4581722 191.391195,56.789305 191.317139,57.1257324 C191.243082,57.4621599 191.162679,57.8144513 191.075928,58.1826172 C190.989176,58.5507831 190.888672,58.9506814 190.774414,59.3823242 L190.844238,59.3823242 C191.242027,58.8618138 191.63452,58.4894217 192.021729,58.2651367 C192.408937,58.0408517 192.814125,57.9287109 193.237305,57.9287109 C193.791669,57.9287109 194.220132,58.0810532 194.522705,58.3857422 C194.825278,58.6904312 194.976562,59.1220675 194.976562,59.6806641 C194.976562,59.9430352 194.927898,60.2942686 194.830566,60.734375 C194.665527,61.5511109 194.358726,62.9729716 193.910156,65 L192.84375,65 Z M200.511719,65 L199.718262,58.0429688 L200.784668,58.0429688 L201.190918,61.934082 C201.292481,63.0258844 201.343262,63.7918272 201.343262,64.2319336 L201.381348,64.2319336 C201.918785,63.0681908 202.297525,62.2832052 202.517578,61.8769531 L204.580566,58.0429688 L205.710449,58.0429688 L201.958984,65 L200.511719,65 Z M208.224121,65.1269531 C207.445471,65.1269531 206.833987,64.8963239 206.389648,64.4350586 C205.94531,63.9737933 205.723145,63.3348023 205.723145,62.5180664 C205.723145,61.7224895 205.880776,60.9597204 206.196045,60.2297363 C206.511313,59.4997522 206.929197,58.9316427 207.449707,58.5253906 C207.970217,58.1191386 208.543617,57.9160156 209.169922,57.9160156 C209.817386,57.9160156 210.304035,58.0567206 210.629883,58.3381348 C210.955731,58.6195489 211.118652,59.0120418 211.118652,59.515625 C211.118652,60.2773476 210.767419,60.8750792 210.064941,61.3088379 C209.362464,61.7425966 208.357428,61.9594727 207.049805,61.9594727 L206.840332,61.9594727 L206.814941,62.4672852 C206.814941,63.0216499 206.945067,63.4543441 207.205322,63.7653809 C207.465577,64.0764176 207.86865,64.2319336 208.414551,64.2319336 C208.681154,64.2319336 208.955158,64.193848 209.236572,64.1176758 C209.517986,64.0415035 209.868162,63.9018565 210.287109,63.6987305 L210.287109,64.6254883 C209.889321,64.8116871 209.538087,64.9418128 209.233398,65.0158691 C208.928709,65.0899255 208.592287,65.1269531 208.224121,65.1269531 Z M209.106445,58.8237305 C208.670571,58.8237305 208.261151,59.0226217 207.878174,59.4204102 C207.495197,59.8181986 207.202149,60.3704392 206.999023,61.0771484 L207.075195,61.0771484 C208.040044,61.0771484 208.779538,60.9512545 209.293701,60.6994629 C209.807864,60.4476713 210.064941,60.0826847 210.064941,59.6044922 C210.064941,59.3802072 209.987712,59.1940112 209.833252,59.0458984 C209.678792,58.8977857 209.436525,58.8237305 209.106445,58.8237305 Z M216.285645,57.9160156 C216.577638,57.9160156 216.831542,57.9456377 217.047363,58.0048828 L216.818848,58.9570312 C216.594563,58.902018 216.372397,58.8745117 216.152344,58.8745117 C215.767251,58.8745117 215.406496,59.0014636 215.070068,59.2553711 C214.733641,59.5092786 214.439536,59.86157 214.187744,60.3122559 C213.935953,60.7629417 213.750814,61.2633436 213.632324,61.8134766 L212.953125,65 L211.886719,65 L213.37207,58.0429688 L214.254395,58.0429688 L214.114746,59.331543 L214.178223,59.331543 C214.482912,58.9295227 214.7347,58.6407073 214.933594,58.4650879 C215.132488,58.2894685 215.340901,58.1540532 215.558838,58.0588379 C215.776775,57.9636226 216.019042,57.9160156 216.285645,57.9160156 Z M219.783203,65.1269531 C219.004553,65.1269531 218.393069,64.8963239 217.94873,64.4350586 C217.504392,63.9737933 217.282227,63.3348023 217.282227,62.5180664 C217.282227,61.7224895 217.439858,60.9597204 217.755127,60.2297363 C218.070395,59.4997522 218.488279,58.9316427 219.008789,58.5253906 C219.529299,58.1191386 220.102699,57.9160156 220.729004,57.9160156 C221.376468,57.9160156 221.863117,58.0567206 222.188965,58.3381348 C222.514813,58.6195489 222.677734,59.0120418 222.677734,59.515625 C222.677734,60.2773476 222.326501,60.8750792 221.624023,61.3088379 C220.921546,61.7425966 219.91651,61.9594727 218.608887,61.9594727 L218.399414,61.9594727 L218.374023,62.4672852 C218.374023,63.0216499 218.504149,63.4543441 218.764404,63.7653809 C219.02466,64.0764176 219.427732,64.2319336 219.973633,64.2319336 C220.240236,64.2319336 220.51424,64.193848 220.795654,64.1176758 C221.077068,64.0415035 221.427244,63.9018565 221.846191,63.6987305 L221.846191,64.6254883 C221.448403,64.8116871 221.097169,64.9418128 220.79248,65.0158691 C220.487791,65.0899255 220.151369,65.1269531 219.783203,65.1269531 Z M220.665527,58.8237305 C220.229653,58.8237305 219.820233,59.0226217 219.437256,59.4204102 C219.054279,59.8181986 218.761231,60.3704392 218.558105,61.0771484 L218.634277,61.0771484 C219.599126,61.0771484 220.33862,60.9512545 220.852783,60.6994629 C221.366946,60.4476713 221.624023,60.0826847 221.624023,59.6044922 C221.624023,59.3802072 221.546794,59.1940112 221.392334,59.0458984 C221.237874,58.8977857 220.995607,58.8237305 220.665527,58.8237305 Z M224.512207,65 L223.445801,65 L224.931152,58.0429688 L225.997559,58.0429688 L224.512207,65 Z M225.229492,56.265625 C225.229492,56.0286446 225.2972,55.8350431 225.432617,55.6848145 C225.568035,55.5345858 225.743651,55.4594727 225.959473,55.4594727 C226.33187,55.4594727 226.518066,55.6499004 226.518066,56.0307617 C226.518066,56.2635103 226.447185,56.4602857 226.30542,56.6210938 C226.163655,56.7819018 225.999675,56.8623047 225.813477,56.8623047 C225.644205,56.8623047 225.504558,56.810466 225.394531,56.7067871 C225.284505,56.6031082 225.229492,56.4560556 225.229492,56.265625 Z M230.999512,65 L231.938965,60.6074219 C232.023601,60.1673155 232.065918,59.8626311 232.065918,59.6933594 C232.065918,59.4267565 231.990805,59.2130542 231.840576,59.0522461 C231.690348,58.891438 231.450197,58.8110352 231.120117,58.8110352 C230.743488,58.8110352 230.376385,58.937987 230.018799,59.1918945 C229.661212,59.4458021 229.345949,59.8076148 229.072998,60.2773438 C228.800047,60.7470727 228.593751,61.3162401 228.454102,61.9848633 L227.812988,65 L226.746582,65 L228.231934,58.0429688 L229.114258,58.0429688 L228.974609,59.331543 L229.038086,59.331543 C229.444338,58.8152643 229.836831,58.4502778 230.215576,58.2365723 C230.594322,58.0228668 230.986814,57.9160156 231.393066,57.9160156 C231.930504,57.9160156 232.354735,58.0630682 232.665771,58.3571777 C232.976808,58.6512873 233.132324,59.0628229 233.132324,59.5917969 C233.132324,59.9261084 233.083659,60.306964 232.986328,60.734375 L232.078613,65 L230.999512,65 Z M236.382324,64.2573242 C236.615073,64.2573242 236.919757,64.2023117 237.296387,64.0922852 L237.296387,64.9111328 C237.152506,64.9703779 236.974773,65.0211586 236.763184,65.0634766 C236.551594,65.1057945 236.382325,65.1269531 236.255371,65.1269531 C235.726397,65.1269531 235.321209,65.0010592 235.039795,64.7492676 C234.758381,64.497476 234.617676,64.12191 234.617676,63.6225586 C234.617676,63.3432603 234.655761,63.0258807 234.731934,62.6704102 L235.538086,58.8491211 L234.446289,58.8491211 L234.535156,58.3857422 L235.709473,57.890625 L236.50293,56.4433594 L237.125,56.4433594 L236.775879,58.0429688 L238.515137,58.0429688 L238.350098,58.8491211 L236.617188,58.8491211 L235.79834,62.6831055 C235.722168,63.0512714 235.684082,63.3305655 235.684082,63.5209961 C235.684082,63.7579764 235.745442,63.9399408 235.868164,64.0668945 C235.990886,64.1938483 236.162271,64.2573242 236.382324,64.2573242 Z M238.362793,64.5302734 C238.362793,64.2044255 238.448485,63.9452321 238.619873,63.7526855 C238.791261,63.560139 239.027179,63.4638672 239.327637,63.4638672 C239.509604,63.4638672 239.656656,63.5188797 239.768799,63.6289062 C239.880941,63.7389328 239.937012,63.9060861 239.937012,64.1303711 C239.937012,64.4308283 239.852377,64.6815582 239.683105,64.8825684 C239.513834,65.0835785 239.28532,65.184082 238.997559,65.184082 C238.802896,65.184082 238.648438,65.1290696 238.53418,65.019043 C238.419921,64.9090164 238.362793,64.7460948 238.362793,64.5302734 Z" id="Alles-Wichtige-endli"></path>
            <path d="M59.5507812,55.6484375 C58.7421835,55.6484375 58.0097689,55.5253919 57.3535156,55.2792969 L57.3535156,52.8007812 C58.1035194,53.058595 58.7597628,53.1875 59.3222656,53.1875 C60.2128951,53.1875 60.8984351,52.8242224 61.3789062,52.0976562 C61.8593774,51.3710901 62.2460923,50.3339911 62.5390625,48.9863281 L66.5292969,29.9667969 L63.1367188,29.9667969 L63.3652344,28.7890625 L66.9863281,27.6289062 L67.390625,25.8710938 C67.9296902,23.527332 68.676753,21.8720751 69.6318359,20.9052734 C70.5869188,19.9384717 72.0019437,19.4550781 73.8769531,19.4550781 C74.3457055,19.4550781 74.9199185,19.5224603 75.5996094,19.6572266 C76.2793003,19.7919929 76.8066388,19.9414054 77.1816406,20.1054688 L76.4257812,22.3730469 C75.5351518,22.0332014 74.7324254,21.8632812 74.0175781,21.8632812 C72.9980418,21.8632812 72.215823,22.1474581 71.6708984,22.7158203 C71.1259738,23.2841825 70.6835954,24.3242112 70.34375,25.8359375 L69.9042969,27.734375 L74.0878906,27.734375 L73.6484375,29.9667969 L69.4824219,29.9667969 L65.4042969,49.2675781 C64.9472633,51.4824329 64.2441454,53.0996043 63.2949219,54.1191406 C62.3456984,55.138677 61.097664,55.6484375 59.5507812,55.6484375 Z M76.671875,47 L73.71875,47 L77.8320312,27.734375 L80.7851562,27.734375 L76.671875,47 Z M78.6582031,22.8125 C78.6582031,22.1562467 78.8457013,21.6201193 79.2207031,21.2041016 C79.595705,20.7880839 80.0820283,20.5800781 80.6796875,20.5800781 C81.7109427,20.5800781 82.2265625,21.1074166 82.2265625,22.1621094 C82.2265625,22.8066438 82.0302754,23.3515603 81.6376953,23.796875 C81.2451152,24.2421897 80.7910182,24.4648438 80.2753906,24.4648438 C79.8066383,24.4648438 79.4199234,24.3212905 79.1152344,24.0341797 C78.8105454,23.7470689 78.6582031,23.3398464 78.6582031,22.8125 Z M94.671875,47 L97.2734375,34.8359375 C97.5078137,33.6171814 97.625,32.7734398 97.625,32.3046875 C97.625,31.5664026 97.4169943,30.9746116 97.0009766,30.5292969 C96.5849589,30.0839821 95.9199264,29.8613281 95.0058594,29.8613281 C93.9628854,29.8613281 92.946294,30.2128871 91.9560547,30.9160156 C90.9658154,31.6191441 90.0927772,32.6210872 89.3369141,33.921875 C88.5810509,35.2226628 88.0097676,36.7988189 87.6230469,38.6503906 L85.8476562,47 L82.8945312,47 L87.0078125,27.734375 L89.4511719,27.734375 L89.0644531,31.3027344 L89.2402344,31.3027344 C90.36524,29.8730397 91.4521432,28.8623076 92.5009766,28.2705078 C93.5498099,27.678708 94.6367131,27.3828125 95.7617188,27.3828125 C97.2500074,27.3828125 98.4248004,27.790035 99.2861328,28.6044922 C100.147465,29.4189494 100.578125,30.5585864 100.578125,32.0234375 C100.578125,32.9492234 100.443361,34.0039003 100.173828,35.1875 L97.6601562,47 L94.671875,47 Z M106.027344,21.3007812 L113.65625,21.3007812 C117.19533,21.3007812 119.752922,21.8164011 121.329102,22.8476562 C122.905281,23.8789114 123.693359,25.5078014 123.693359,27.734375 C123.693359,29.2343825 123.306644,30.4824169 122.533203,31.4785156 C121.759762,32.4746144 120.646492,33.1015612 119.193359,33.359375 L119.193359,33.5351562 C120.998056,33.8750017 122.325191,34.5458934 123.174805,35.5478516 C124.024418,36.5498097 124.449219,37.9062414 124.449219,39.6171875 C124.449219,41.9257928 123.643563,43.7333919 122.032227,45.0400391 C120.42089,46.3466862 118.179702,47 115.308594,47 L106.027344,47 L106.027344,21.3007812 Z M110.228516,31.9179688 L114.271484,31.9179688 C116.029306,31.9179688 117.312496,31.6396512 118.121094,31.0830078 C118.929692,30.5263644 119.333984,29.5800848 119.333984,28.2441406 C119.333984,27.0371033 118.897465,26.1640652 118.024414,25.625 C117.151363,25.0859348 115.765634,24.8164062 113.867188,24.8164062 L110.228516,24.8164062 L110.228516,31.9179688 Z M110.228516,35.328125 L110.228516,43.4667969 L114.693359,43.4667969 C116.451181,43.4667969 117.778316,43.1298862 118.674805,42.4560547 C119.571294,41.7822232 120.019531,40.7187573 120.019531,39.265625 C120.019531,37.9296808 119.562505,36.9394563 118.648438,36.2949219 C117.73437,35.6503874 116.345712,35.328125 114.482422,35.328125 L110.228516,35.328125 Z M141.517578,47 L140.691406,44.2929688 L140.550781,44.2929688 C139.613277,45.4765684 138.669927,46.2822244 137.720703,46.7099609 C136.77148,47.1376975 135.552742,47.3515625 134.064453,47.3515625 C132.154287,47.3515625 130.663091,46.8359427 129.59082,45.8046875 C128.518549,44.7734323 127.982422,43.3144626 127.982422,41.4277344 C127.982422,39.4238181 128.726555,37.9121145 130.214844,36.8925781 C131.703132,35.8730418 133.970688,35.3164067 137.017578,35.2226562 L140.375,35.1171875 L140.375,34.0800781 C140.375,32.8378844 140.084964,31.9091828 139.504883,31.2939453 C138.924802,30.6787079 138.025397,30.3710938 136.806641,30.3710938 C135.810542,30.3710938 134.855473,30.5175767 133.941406,30.8105469 C133.027339,31.1035171 132.148442,31.4492168 131.304688,31.8476562 L129.96875,28.8945312 C131.023443,28.3437472 132.177728,27.9248061 133.431641,27.6376953 C134.685553,27.3505845 135.869135,27.2070312 136.982422,27.2070312 C139.45509,27.2070312 141.321283,27.7460884 142.581055,28.8242188 C143.840827,29.9023491 144.470703,31.5956916 144.470703,33.9042969 L144.470703,47 L141.517578,47 Z M135.365234,44.1875 C136.865242,44.1875 138.069331,43.7685589 138.977539,42.9306641 C139.885747,42.0927692 140.339844,40.9179763 140.339844,39.40625 L140.339844,37.71875 L137.84375,37.8242188 C135.898428,37.8945316 134.483403,38.2197237 133.598633,38.7998047 C132.713863,39.3798857 132.271484,40.2675721 132.271484,41.4628906 C132.271484,42.3300825 132.529294,43.0009742 133.044922,43.4755859 C133.560549,43.9501977 134.333979,44.1875 135.365234,44.1875 Z M154.367188,47 L150.236328,47 L150.236328,19.6484375 L154.367188,19.6484375 L154.367188,47 Z M172.4375,47 L171.611328,44.2929688 L171.470703,44.2929688 C170.533198,45.4765684 169.589848,46.2822244 168.640625,46.7099609 C167.691402,47.1376975 166.472664,47.3515625 164.984375,47.3515625 C163.074209,47.3515625 161.583013,46.8359427 160.510742,45.8046875 C159.438471,44.7734323 158.902344,43.3144626 158.902344,41.4277344 C158.902344,39.4238181 159.646477,37.9121145 161.134766,36.8925781 C162.623054,35.8730418 164.89061,35.3164067 167.9375,35.2226562 L171.294922,35.1171875 L171.294922,34.0800781 C171.294922,32.8378844 171.004886,31.9091828 170.424805,31.2939453 C169.844724,30.6787079 168.945319,30.3710938 167.726562,30.3710938 C166.730464,30.3710938 165.775395,30.5175767 164.861328,30.8105469 C163.947261,31.1035171 163.068364,31.4492168 162.224609,31.8476562 L160.888672,28.8945312 C161.943365,28.3437472 163.09765,27.9248061 164.351562,27.6376953 C165.605475,27.3505845 166.789057,27.2070312 167.902344,27.2070312 C170.375012,27.2070312 172.241205,27.7460884 173.500977,28.8242188 C174.760748,29.9023491 175.390625,31.5956916 175.390625,33.9042969 L175.390625,47 L172.4375,47 Z M166.285156,44.1875 C167.785164,44.1875 168.989253,43.7685589 169.897461,42.9306641 C170.805669,42.0927692 171.259766,40.9179763 171.259766,39.40625 L171.259766,37.71875 L168.763672,37.8242188 C166.81835,37.8945316 165.403325,38.2197237 164.518555,38.7998047 C163.633785,39.3798857 163.191406,40.2675721 163.191406,41.4628906 C163.191406,42.3300825 163.449216,43.0009742 163.964844,43.4755859 C164.480471,43.9501977 165.253901,44.1875 166.285156,44.1875 Z M198.259766,47 L194.111328,47 L194.111328,35.046875 C194.111328,33.5468675 193.809573,32.4277381 193.206055,31.6894531 C192.602536,30.9511682 191.644538,30.5820312 190.332031,30.5820312 C188.585929,30.5820312 187.308598,31.0976511 186.5,32.1289062 C185.691402,33.1601614 185.287109,34.8886597 185.287109,37.3144531 L185.287109,47 L181.15625,47 L181.15625,27.5585938 L184.390625,27.5585938 L184.970703,30.1074219 L185.181641,30.1074219 C185.767581,29.181636 186.599604,28.4667994 187.677734,27.9628906 C188.755865,27.4589819 189.951165,27.2070312 191.263672,27.2070312 C195.927758,27.2070312 198.259766,29.5800544 198.259766,34.3261719 L198.259766,47 Z M211.847656,47.3515625 C208.906235,47.3515625 206.670906,46.4931726 205.141602,44.7763672 C203.612297,43.0595617 202.847656,40.5957192 202.847656,37.3847656 C202.847656,34.115218 203.647453,31.6015713 205.24707,29.84375 C206.846688,28.0859287 209.158188,27.2070312 212.181641,27.2070312 C214.232432,27.2070312 216.078117,27.5878868 217.71875,28.3496094 L216.470703,31.671875 C214.724601,30.9921841 213.283209,30.6523438 212.146484,30.6523438 C208.783186,30.6523438 207.101562,32.8847433 207.101562,37.3496094 C207.101562,39.5293078 207.520504,41.1669867 208.358398,42.2626953 C209.196293,43.3584039 210.42382,43.90625 212.041016,43.90625 C213.880869,43.90625 215.621086,43.4492233 217.261719,42.5351562 L217.261719,46.1386719 C216.523434,46.5722678 215.735356,46.8828116 214.897461,47.0703125 C214.059566,47.2578134 213.042975,47.3515625 211.847656,47.3515625 Z M230.322266,47.3515625 C227.298813,47.3515625 224.934579,46.4697354 223.229492,44.7060547 C221.524406,42.942374 220.671875,40.5136873 220.671875,37.4199219 C220.671875,34.2441247 221.462883,31.748056 223.044922,29.9316406 C224.626961,28.1152253 226.800767,27.2070312 229.566406,27.2070312 C232.132825,27.2070312 234.160149,27.9863203 235.648438,29.5449219 C237.136726,31.1035234 237.880859,33.2480332 237.880859,35.9785156 L237.880859,38.2109375 L224.925781,38.2109375 C224.984375,40.0976657 225.494136,41.5478465 226.455078,42.5615234 C227.41602,43.5752004 228.769523,44.0820312 230.515625,44.0820312 C231.664068,44.0820312 232.733393,43.9736339 233.723633,43.7568359 C234.713872,43.540038 235.777338,43.17969 236.914062,42.6757812 L236.914062,46.0332031 C235.906245,46.5136743 234.886724,46.8535146 233.855469,47.0527344 C232.824214,47.2519541 231.646491,47.3515625 230.322266,47.3515625 Z M229.566406,30.3359375 C228.2539,30.3359375 227.202152,30.751949 226.411133,31.5839844 C225.620113,32.4160198 225.148438,33.6288983 224.996094,35.2226562 L233.820312,35.2226562 C233.796875,33.6171795 233.41016,32.4013713 232.660156,31.5751953 C231.910153,30.7490193 230.878913,30.3359375 229.566406,30.3359375 Z" id="finBalance"></path>
            <g id="noun_694869_cc" transform="translate(12.000000, 18.000000)" fill-rule="nonzero">
                <path d="M0,16.4444444 C0.412003786,3.73905556 4.8101442,0 18.50103,0 C32.1919158,0 36.5879962,3.73905556 37,16.4444444 L0,16.4444444 Z M37,20.5555556 C36.5879962,33.2609444 32.2001559,37 18.50103,37 C4.80190413,37 0.405823729,33.2588889 0,20.5555556 L37,20.5555556 Z" id="Shape"></path>
            </g>
        </g>
    </g>
</svg>