<?xml version="1.0" encoding="UTF-8"?>
<svg width="239px" height="77px" viewBox="0 0 239 77" version="1.1" xmlns="http://www.w3.org/2000/svg" xmlns:xlink="http://www.w3.org/1999/xlink">
    <!-- Generator: Sketch 47.1 (45422) - http://www.bohemiancoding.com/sketch -->
    <title>logo-dark</title>
    <desc>Created with Sketch.</desc>
    <defs></defs>
    <g id="Page-1" stroke="none" stroke-width="1" fill="none" fill-rule="evenodd">
        <g id="logo-dark">
            <path d="M73.2480469,56.2753906 L70.3417969,56.2753906 L68.90625,59 L67.7988281,59 L72.4804688,50.4335938 L73.5,50.4335938 L74.578125,59 L73.5820312,59 L73.2480469,56.2753906 Z M73.1425781,55.3613281 L72.9375,53.609375 C72.8437495,52.9101528 72.7871095,52.2265658 72.7675781,51.5585938 C72.6230462,51.9023455 72.4658212,52.2441389 72.2958984,52.5839844 C72.1259757,52.9238298 71.6386759,53.8496018 70.8339844,55.3613281 L73.1425781,55.3613281 Z M76.4648438,59 L75.4804688,59 L77.4257812,49.8828125 L78.4101562,49.8828125 L76.4648438,59 Z M79.5117188,59 L78.5273438,59 L80.4726562,49.8828125 L81.4570312,49.8828125 L79.5117188,59 Z M84.1230469,59.1171875 C83.4042933,59.1171875 82.8398458,58.904299 82.4296875,58.4785156 C82.0195292,58.0527322 81.8144531,57.4628944 81.8144531,56.7089844 C81.8144531,55.9746057 81.9599595,55.2705112 82.2509766,54.5966797 C82.5419936,53.9228482 82.927732,53.3984394 83.4082031,53.0234375 C83.8886743,52.6484356 84.4179659,52.4609375 84.9960938,52.4609375 C85.593753,52.4609375 86.0429672,52.590819 86.34375,52.8505859 C86.6445328,53.1103529 86.7949219,53.4726539 86.7949219,53.9375 C86.7949219,54.6406285 86.4707064,55.1923808 85.8222656,55.5927734 C85.1738249,55.9931661 84.2460998,56.1933594 83.0390625,56.1933594 L82.8457031,56.1933594 L82.8222656,56.6621094 C82.8222656,57.1738307 82.9423816,57.5732408 83.1826172,57.8603516 C83.4228528,58.1474624 83.7949194,58.2910156 84.2988281,58.2910156 C84.5449231,58.2910156 84.7978503,58.2558597 85.0576172,58.1855469 C85.3173841,58.115234 85.6406231,57.9863291 86.0273438,57.7988281 L86.0273438,58.6542969 C85.6601544,58.8261727 85.3359389,58.9462887 85.0546875,59.0146484 C84.7734361,59.0830082 84.4628923,59.1171875 84.1230469,59.1171875 Z M84.9375,53.2988281 C84.5351542,53.2988281 84.1572283,53.48242 83.8037109,53.8496094 C83.4501935,54.2167987 83.1796884,54.7265592 82.9921875,55.3789062 L83.0625,55.3789062 C83.9531295,55.3789062 84.6357398,55.2626965 85.1103516,55.0302734 C85.5849633,54.7978504 85.8222656,54.4609397 85.8222656,54.0195312 C85.8222656,53.812499 85.7509773,53.6406257 85.6083984,53.5039062 C85.4658196,53.3671868 85.242189,53.2988281 84.9375,53.2988281 Z M91.4648438,57.1777344 C91.4648438,57.7871124 91.2490256,58.2626936 90.8173828,58.6044922 C90.38574,58.9462908 89.7773477,59.1171875 88.9921875,59.1171875 C88.3320279,59.1171875 87.7363308,58.9824232 87.2050781,58.7128906 L87.2050781,57.7871094 C87.478517,57.9511727 87.7734359,58.0781246 88.0898438,58.1679688 C88.4062516,58.2578129 88.6992174,58.3027344 88.96875,58.3027344 C89.46094,58.3027344 89.83203,58.2050791 90.0820312,58.0097656 C90.3320325,57.8144521 90.4570312,57.5644546 90.4570312,57.2597656 C90.4570312,57.0371083 90.3886726,56.8496101 90.2519531,56.6972656 C90.1152337,56.5449211 89.8203148,56.3359388 89.3671875,56.0703125 C88.8593725,55.7851548 88.5000011,55.5058607 88.2890625,55.2324219 C88.0781239,54.958983 87.9726562,54.6347675 87.9726562,54.2597656 C87.9726562,53.7207004 88.1699199,53.2861345 88.5644531,52.9560547 C88.9589863,52.6259749 89.4785124,52.4609375 90.1230469,52.4609375 C90.791019,52.4609375 91.4355438,52.6054673 92.0566406,52.8945312 L91.7402344,53.6972656 L91.4121094,53.5507812 C91.0175762,53.3828117 90.5878929,53.2988281 90.1230469,53.2988281 C89.7597638,53.2988281 89.4746104,53.3837882 89.2675781,53.5537109 C89.0605458,53.7236337 88.9570312,53.943358 88.9570312,54.2128906 C88.9570312,54.4316417 89.0263665,54.6191398 89.1650391,54.7753906 C89.3037116,54.9316414 89.5898416,55.1328113 90.0234375,55.3789062 C90.4414083,55.6132824 90.74121,55.8144523 90.9228516,55.9824219 C91.1044931,56.1503915 91.2402339,56.3310537 91.3300781,56.5244141 C91.4199223,56.7177744 91.4648438,56.9355457 91.4648438,57.1777344 Z M96.9257812,59 L95.9179688,59 L97.7285156,50.4335938 L102.035156,50.4335938 L101.859375,51.3300781 L98.53125,51.3300781 L97.8867188,54.453125 L100.980469,54.453125 L100.792969,55.3496094 L97.6933594,55.3496094 L96.9257812,59 Z M102.410156,59 L101.425781,59 L102.796875,52.578125 L103.78125,52.578125 L102.410156,59 Z M103.072266,50.9375 C103.072266,50.7187489 103.134765,50.5400398 103.259766,50.4013672 C103.384766,50.2626946 103.546874,50.1933594 103.746094,50.1933594 C104.089845,50.1933594 104.261719,50.3691389 104.261719,50.7207031 C104.261719,50.9355479 104.19629,51.1171868 104.06543,51.265625 C103.93457,51.4140632 103.783204,51.4882812 103.611328,51.4882812 C103.455077,51.4882812 103.326172,51.4404302 103.224609,51.3447266 C103.123046,51.249023 103.072266,51.1132821 103.072266,50.9375 Z M108.398438,59 L109.265625,54.9453125 C109.34375,54.5390605 109.382812,54.2578133 109.382812,54.1015625 C109.382812,53.8554675 109.313477,53.6582039 109.174805,53.5097656 C109.036132,53.3613274 108.814455,53.2871094 108.509766,53.2871094 C108.162108,53.2871094 107.823244,53.4042957 107.493164,53.6386719 C107.163084,53.873048 106.872072,54.2070291 106.620117,54.640625 C106.368163,55.0742209 106.177735,55.5996063 106.048828,56.2167969 L105.457031,59 L104.472656,59 L105.84375,52.578125 L106.658203,52.578125 L106.529297,53.7675781 L106.587891,53.7675781 C106.962892,53.2910132 107.325194,52.9541025 107.674805,52.7568359 C108.024416,52.5595693 108.386717,52.4609375 108.761719,52.4609375 C109.257815,52.4609375 109.649413,52.5966783 109.936523,52.8681641 C110.223634,53.1396498 110.367188,53.5195288 110.367188,54.0078125 C110.367188,54.3164078 110.322266,54.6679668 110.232422,55.0625 L109.394531,59 L108.398438,59 Z M114.796875,52.4609375 C115.156252,52.4609375 115.476561,52.5576162 115.757812,52.7509766 C116.039064,52.9443369 116.257812,53.2226544 116.414062,53.5859375 L116.478516,53.5859375 L116.871094,52.578125 L117.615234,52.578125 L116.25,59 L115.470703,59 L115.623047,57.7753906 L115.576172,57.7753906 C114.87695,58.6699263 114.140629,59.1171875 113.367188,59.1171875 C112.824216,59.1171875 112.398439,58.9238301 112.089844,58.5371094 C111.781248,58.1503887 111.626953,57.6210971 111.626953,56.9492188 C111.626953,56.1367147 111.765624,55.382816 112.042969,54.6875 C112.320314,53.992184 112.703123,53.4472676 113.191406,53.0527344 C113.67969,52.6582012 114.214841,52.4609375 114.796875,52.4609375 Z M113.683594,58.3027344 C114.062502,58.3027344 114.439451,58.1220721 114.814453,57.7607422 C115.189455,57.3994123 115.494139,56.9287138 115.728516,56.3486328 C115.962892,55.7685518 116.080078,55.1875029 116.080078,54.6054688 C116.080078,54.203123 115.970704,53.8828137 115.751953,53.6445312 C115.533202,53.4062488 115.246096,53.2871094 114.890625,53.2871094 C114.484373,53.2871094 114.106447,53.4550764 113.756836,53.7910156 C113.407225,54.1269548 113.132813,54.5820284 112.933594,55.15625 C112.734374,55.7304716 112.634766,56.3359343 112.634766,56.9726562 C112.634766,57.417971 112.726562,57.7509755 112.910156,57.9716797 C113.093751,58.1923839 113.351561,58.3027344 113.683594,58.3027344 Z M122.103516,59 L122.970703,54.9453125 C123.048829,54.5390605 123.087891,54.2578133 123.087891,54.1015625 C123.087891,53.8554675 123.018555,53.6582039 122.879883,53.5097656 C122.74121,53.3613274 122.519533,53.2871094 122.214844,53.2871094 C121.867186,53.2871094 121.528322,53.4042957 121.198242,53.6386719 C120.868162,53.873048 120.57715,54.2070291 120.325195,54.640625 C120.073241,55.0742209 119.882813,55.5996063 119.753906,56.2167969 L119.162109,59 L118.177734,59 L119.548828,52.578125 L120.363281,52.578125 L120.234375,53.7675781 L120.292969,53.7675781 C120.667971,53.2910132 121.030272,52.9541025 121.379883,52.7568359 C121.729494,52.5595693 122.091795,52.4609375 122.466797,52.4609375 C122.962893,52.4609375 123.354491,52.5966783 123.641602,52.8681641 C123.928712,53.1396498 124.072266,53.5195288 124.072266,54.0078125 C124.072266,54.3164078 124.027344,54.6679668 123.9375,55.0625 L123.099609,59 L122.103516,59 Z M128.800781,59 L124.587891,59 L124.722656,58.3144531 L128.789062,53.3105469 L125.982422,53.3105469 L126.140625,52.578125 L129.990234,52.578125 L129.820312,53.3984375 L125.835938,58.2675781 L128.947266,58.2675781 L128.800781,59 Z M131.414062,59 L130.429688,59 L131.800781,52.578125 L132.785156,52.578125 L131.414062,59 Z M132.076172,50.9375 C132.076172,50.7187489 132.138671,50.5400398 132.263672,50.4013672 C132.388672,50.2626946 132.55078,50.1933594 132.75,50.1933594 C133.093752,50.1933594 133.265625,50.3691389 133.265625,50.7207031 C133.265625,50.9355479 133.200196,51.1171868 133.069336,51.265625 C132.938476,51.4140632 132.78711,51.4882812 132.615234,51.4882812 C132.458984,51.4882812 132.330079,51.4404302 132.228516,51.3447266 C132.126953,51.249023 132.076172,51.1132821 132.076172,50.9375 Z M136.013672,59.1171875 C135.294918,59.1171875 134.730471,58.904299 134.320312,58.4785156 C133.910154,58.0527322 133.705078,57.4628944 133.705078,56.7089844 C133.705078,55.9746057 133.850584,55.2705112 134.141602,54.5966797 C134.432619,53.9228482 134.818357,53.3984394 135.298828,53.0234375 C135.779299,52.6484356 136.308591,52.4609375 136.886719,52.4609375 C137.484378,52.4609375 137.933592,52.590819 138.234375,52.8505859 C138.535158,53.1103529 138.685547,53.4726539 138.685547,53.9375 C138.685547,54.6406285 138.361331,55.1923808 137.712891,55.5927734 C137.06445,55.9931661 136.136725,56.1933594 134.929688,56.1933594 L134.736328,56.1933594 L134.712891,56.6621094 C134.712891,57.1738307 134.833007,57.5732408 135.073242,57.8603516 C135.313478,58.1474624 135.685544,58.2910156 136.189453,58.2910156 C136.435548,58.2910156 136.688475,58.2558597 136.948242,58.1855469 C137.208009,58.115234 137.531248,57.9863291 137.917969,57.7988281 L137.917969,58.6542969 C137.550779,58.8261727 137.226564,58.9462887 136.945312,59.0146484 C136.664061,59.0830082 136.353517,59.1171875 136.013672,59.1171875 Z M136.828125,53.2988281 C136.425779,53.2988281 136.047853,53.48242 135.694336,53.8496094 C135.340819,54.2167987 135.070313,54.7265592 134.882812,55.3789062 L134.953125,55.3789062 C135.843754,55.3789062 136.526365,55.2626965 137.000977,55.0302734 C137.475588,54.7978504 137.712891,54.4609397 137.712891,54.0195312 C137.712891,53.812499 137.641602,53.6406257 137.499023,53.5039062 C137.356445,53.3671868 137.132814,53.2988281 136.828125,53.2988281 Z M140.367188,59 L139.382812,59 L141.328125,49.8828125 L142.3125,49.8828125 L140.367188,59 Z M143.414062,59 L142.429688,59 L144.375,49.8828125 L145.359375,49.8828125 L143.414062,59 Z M148.025391,59.1171875 C147.306637,59.1171875 146.74219,58.904299 146.332031,58.4785156 C145.921873,58.0527322 145.716797,57.4628944 145.716797,56.7089844 C145.716797,55.9746057 145.862303,55.2705112 146.15332,54.5966797 C146.444337,53.9228482 146.830076,53.3984394 147.310547,53.0234375 C147.791018,52.6484356 148.32031,52.4609375 148.898438,52.4609375 C149.496097,52.4609375 149.945311,52.590819 150.246094,52.8505859 C150.546877,53.1103529 150.697266,53.4726539 150.697266,53.9375 C150.697266,54.6406285 150.37305,55.1923808 149.724609,55.5927734 C149.076169,55.9931661 148.148444,56.1933594 146.941406,56.1933594 L146.748047,56.1933594 L146.724609,56.6621094 C146.724609,57.1738307 146.844725,57.5732408 147.084961,57.8603516 C147.325197,58.1474624 147.697263,58.2910156 148.201172,58.2910156 C148.447267,58.2910156 148.700194,58.2558597 148.959961,58.1855469 C149.219728,58.115234 149.542967,57.9863291 149.929688,57.7988281 L149.929688,58.6542969 C149.562498,58.8261727 149.238283,58.9462887 148.957031,59.0146484 C148.67578,59.0830082 148.365236,59.1171875 148.025391,59.1171875 Z M148.839844,53.2988281 C148.437498,53.2988281 148.059572,53.48242 147.706055,53.8496094 C147.352537,54.2167987 147.082032,54.7265592 146.894531,55.3789062 L146.964844,55.3789062 C147.855473,55.3789062 148.538084,55.2626965 149.012695,55.0302734 C149.487307,54.7978504 149.724609,54.4609397 149.724609,54.0195312 C149.724609,53.812499 149.653321,53.6406257 149.510742,53.5039062 C149.368163,53.3671868 149.144533,53.2988281 148.839844,53.2988281 Z M157.060547,59.1171875 C156.341793,59.1171875 155.777346,58.904299 155.367188,58.4785156 C154.957029,58.0527322 154.751953,57.4628944 154.751953,56.7089844 C154.751953,55.9746057 154.897459,55.2705112 155.188477,54.5966797 C155.479494,53.9228482 155.865232,53.3984394 156.345703,53.0234375 C156.826174,52.6484356 157.355466,52.4609375 157.933594,52.4609375 C158.531253,52.4609375 158.980467,52.590819 159.28125,52.8505859 C159.582033,53.1103529 159.732422,53.4726539 159.732422,53.9375 C159.732422,54.6406285 159.408206,55.1923808 158.759766,55.5927734 C158.111325,55.9931661 157.1836,56.1933594 155.976562,56.1933594 L155.783203,56.1933594 L155.759766,56.6621094 C155.759766,57.1738307 155.879882,57.5732408 156.120117,57.8603516 C156.360353,58.1474624 156.732419,58.2910156 157.236328,58.2910156 C157.482423,58.2910156 157.73535,58.2558597 157.995117,58.1855469 C158.254884,58.115234 158.578123,57.9863291 158.964844,57.7988281 L158.964844,58.6542969 C158.597654,58.8261727 158.273439,58.9462887 157.992188,59.0146484 C157.710936,59.0830082 157.400392,59.1171875 157.060547,59.1171875 Z M157.875,53.2988281 C157.472654,53.2988281 157.094728,53.48242 156.741211,53.8496094 C156.387694,54.2167987 156.117188,54.7265592 155.929688,55.3789062 L156,55.3789062 C156.890629,55.3789062 157.57324,55.2626965 158.047852,55.0302734 C158.522463,54.7978504 158.759766,54.4609397 158.759766,54.0195312 C158.759766,53.812499 158.688477,53.6406257 158.545898,53.5039062 C158.40332,53.3671868 158.179689,53.2988281 157.875,53.2988281 Z M164.367188,59 L165.234375,54.9453125 C165.3125,54.5390605 165.351562,54.2578133 165.351562,54.1015625 C165.351562,53.8554675 165.282227,53.6582039 165.143555,53.5097656 C165.004882,53.3613274 164.783205,53.2871094 164.478516,53.2871094 C164.130858,53.2871094 163.791994,53.4042957 163.461914,53.6386719 C163.131834,53.873048 162.840822,54.2070291 162.588867,54.640625 C162.336913,55.0742209 162.146485,55.5996063 162.017578,56.2167969 L161.425781,59 L160.441406,59 L161.8125,52.578125 L162.626953,52.578125 L162.498047,53.7675781 L162.556641,53.7675781 C162.931643,53.2910132 163.293944,52.9541025 163.643555,52.7568359 C163.993166,52.5595693 164.355467,52.4609375 164.730469,52.4609375 C165.226565,52.4609375 165.618163,52.5966783 165.905273,52.8681641 C166.192384,53.1396498 166.335938,53.5195288 166.335938,54.0078125 C166.335938,54.3164078 166.291016,54.6679668 166.201172,55.0625 L165.363281,59 L164.367188,59 Z M170.765625,52.4726562 C171.523441,52.4726562 172.072264,52.8437463 172.412109,53.5859375 L172.470703,53.5859375 C172.53711,52.9804657 172.624999,52.4453148 172.734375,51.9804688 L173.191406,49.8828125 L174.164062,49.8828125 L172.230469,59 L171.416016,59 L171.544922,57.7753906 L171.498047,57.7753906 C171.103514,58.2636743 170.734377,58.609374 170.390625,58.8125 C170.046873,59.015626 169.691408,59.1171875 169.324219,59.1171875 C168.781247,59.1171875 168.357423,58.9257832 168.052734,58.5429688 C167.748045,58.1601543 167.595703,57.6289096 167.595703,56.9492188 C167.595703,56.1132771 167.736327,55.3476597 168.017578,54.6523438 C168.29883,53.9570278 168.678709,53.4199238 169.157227,53.0410156 C169.635745,52.6621075 170.171872,52.4726562 170.765625,52.4726562 Z M169.652344,58.3027344 C170.019533,58.3027344 170.398436,58.120119 170.789062,57.7548828 C171.179689,57.3896466 171.489257,56.9228544 171.717773,56.3544922 C171.94629,55.78613 172.060547,55.2070342 172.060547,54.6171875 C172.060547,54.1835916 171.955079,53.8535168 171.744141,53.6269531 C171.533202,53.4003895 171.226565,53.2871094 170.824219,53.2871094 C170.429686,53.2871094 170.063478,53.4482406 169.725586,53.7705078 C169.387694,54.092775 169.116212,54.5458955 168.911133,55.1298828 C168.706054,55.7138701 168.603516,56.3281218 168.603516,56.9726562 C168.603516,57.8593794 168.953122,58.3027344 169.652344,58.3027344 Z M175.265625,59 L174.28125,59 L176.226562,49.8828125 L177.210938,49.8828125 L175.265625,59 Z M178.324219,59 L177.339844,59 L178.710938,52.578125 L179.695312,52.578125 L178.324219,59 Z M178.986328,50.9375 C178.986328,50.7187489 179.048827,50.5400398 179.173828,50.4013672 C179.298829,50.2626946 179.460937,50.1933594 179.660156,50.1933594 C180.003908,50.1933594 180.175781,50.3691389 180.175781,50.7207031 C180.175781,50.9355479 180.110352,51.1171868 179.979492,51.265625 C179.848632,51.4140632 179.697266,51.4882812 179.525391,51.4882812 C179.36914,51.4882812 179.240235,51.4404302 179.138672,51.3447266 C179.037109,51.249023 178.986328,51.1132821 178.986328,50.9375 Z M183.005859,59.1171875 C182.248043,59.1171875 181.660158,58.9082052 181.242188,58.4902344 C180.824217,58.0722635 180.615234,57.4824257 180.615234,56.7207031 C180.615234,55.9394492 180.759764,55.2187533 181.048828,54.5585938 C181.337892,53.8984342 181.737302,53.3837909 182.24707,53.0146484 C182.756838,52.645506 183.330075,52.4609375 183.966797,52.4609375 C184.501956,52.4609375 185.025388,52.5605459 185.537109,52.7597656 L185.261719,53.5859375 C184.792966,53.3867178 184.365236,53.2871094 183.978516,53.2871094 C183.541013,53.2871094 183.141603,53.4365219 182.780273,53.7353516 C182.418944,54.0341812 182.135743,54.4501926 181.930664,54.9833984 C181.725585,55.5166042 181.623047,56.0957 181.623047,56.7207031 C181.623047,57.2207056 181.752928,57.6093736 182.012695,57.8867188 C182.272462,58.1640639 182.630857,58.3027344 183.087891,58.3027344 C183.369142,58.3027344 183.634764,58.2636723 183.884766,58.1855469 C184.134767,58.1074215 184.380858,58.0156255 184.623047,57.9101562 L184.623047,58.7480469 C184.138669,58.9941419 183.599612,59.1171875 183.005859,59.1171875 Z M189.714844,59 L190.582031,54.9453125 C190.652344,54.5781232 190.6875,54.3144539 190.6875,54.1542969 C190.6875,53.576169 190.400393,53.2871094 189.826172,53.2871094 C189.478514,53.2871094 189.13965,53.4023426 188.80957,53.6328125 C188.479491,53.8632824 188.188478,54.19824 187.936523,54.6376953 C187.684569,55.0771506 187.494141,55.6074188 187.365234,56.2285156 L186.773438,59 L185.789062,59 L187.722656,49.8828125 L188.707031,49.8828125 C188.636718,50.2031266 188.569336,50.5136704 188.504883,50.8144531 C188.440429,51.1152359 188.374024,51.4208969 188.305664,51.7314453 C188.237304,52.0419937 188.163086,52.3671858 188.083008,52.7070312 C188.002929,53.0468767 187.910157,53.4160136 187.804688,53.8144531 L187.869141,53.8144531 C188.23633,53.333982 188.598631,52.9902354 188.956055,52.7832031 C189.313478,52.5761708 189.687498,52.4726562 190.078125,52.4726562 C190.589846,52.4726562 190.98535,52.6132798 191.264648,52.8945312 C191.543947,53.1757827 191.683594,53.5742162 191.683594,54.0898438 C191.683594,54.3320325 191.638672,54.656248 191.548828,55.0625 C191.396484,55.81641 191.113283,57.1288969 190.699219,59 L189.714844,59 Z M196.792969,59 L196.060547,52.578125 L197.044922,52.578125 L197.419922,56.1699219 C197.513672,57.1777394 197.560547,57.8847636 197.560547,58.2910156 L197.595703,58.2910156 C198.091799,57.2167915 198.441405,56.4921894 198.644531,56.1171875 L200.548828,52.578125 L201.591797,52.578125 L198.128906,59 L196.792969,59 Z M203.912109,59.1171875 C203.193356,59.1171875 202.628908,58.904299 202.21875,58.4785156 C201.808592,58.0527322 201.603516,57.4628944 201.603516,56.7089844 C201.603516,55.9746057 201.749022,55.2705112 202.040039,54.5966797 C202.331056,53.9228482 202.716794,53.3984394 203.197266,53.0234375 C203.677737,52.6484356 204.207028,52.4609375 204.785156,52.4609375 C205.382815,52.4609375 205.83203,52.590819 206.132812,52.8505859 C206.433595,53.1103529 206.583984,53.4726539 206.583984,53.9375 C206.583984,54.6406285 206.259769,55.1923808 205.611328,55.5927734 C204.962887,55.9931661 204.035162,56.1933594 202.828125,56.1933594 L202.634766,56.1933594 L202.611328,56.6621094 C202.611328,57.1738307 202.731444,57.5732408 202.97168,57.8603516 C203.211915,58.1474624 203.583982,58.2910156 204.087891,58.2910156 C204.333986,58.2910156 204.586913,58.2558597 204.84668,58.1855469 C205.106447,58.115234 205.429686,57.9863291 205.816406,57.7988281 L205.816406,58.6542969 C205.449217,58.8261727 205.125001,58.9462887 204.84375,59.0146484 C204.562499,59.0830082 204.251955,59.1171875 203.912109,59.1171875 Z M204.726562,53.2988281 C204.324217,53.2988281 203.946291,53.48242 203.592773,53.8496094 C203.239256,54.2167987 202.968751,54.7265592 202.78125,55.3789062 L202.851562,55.3789062 C203.742192,55.3789062 204.424802,55.2626965 204.899414,55.0302734 C205.374026,54.7978504 205.611328,54.4609397 205.611328,54.0195312 C205.611328,53.812499 205.54004,53.6406257 205.397461,53.5039062 C205.254882,53.3671868 205.031252,53.2988281 204.726562,53.2988281 Z M211.353516,52.4609375 C211.623048,52.4609375 211.857421,52.488281 212.056641,52.5429688 L211.845703,53.421875 C211.638671,53.3710935 211.433595,53.3457031 211.230469,53.3457031 C210.874998,53.3457031 210.541994,53.4628895 210.231445,53.6972656 C209.920897,53.9316418 209.649415,54.2568339 209.416992,54.6728516 C209.184569,55.0888693 209.013672,55.5507787 208.904297,56.0585938 L208.277344,59 L207.292969,59 L208.664062,52.578125 L209.478516,52.578125 L209.349609,53.7675781 L209.408203,53.7675781 C209.689455,53.3964825 209.921874,53.1298836 210.105469,52.9677734 C210.289063,52.8056633 210.481444,52.6806645 210.682617,52.5927734 C210.88379,52.5048824 211.107421,52.4609375 211.353516,52.4609375 Z M214.582031,59.1171875 C213.863278,59.1171875 213.29883,58.904299 212.888672,58.4785156 C212.478514,58.0527322 212.273438,57.4628944 212.273438,56.7089844 C212.273438,55.9746057 212.418944,55.2705112 212.709961,54.5966797 C213.000978,53.9228482 213.386716,53.3984394 213.867188,53.0234375 C214.347659,52.6484356 214.87695,52.4609375 215.455078,52.4609375 C216.052737,52.4609375 216.501952,52.590819 216.802734,52.8505859 C217.103517,53.1103529 217.253906,53.4726539 217.253906,53.9375 C217.253906,54.6406285 216.929691,55.1923808 216.28125,55.5927734 C215.632809,55.9931661 214.705084,56.1933594 213.498047,56.1933594 L213.304688,56.1933594 L213.28125,56.6621094 C213.28125,57.1738307 213.401366,57.5732408 213.641602,57.8603516 C213.881837,58.1474624 214.253904,58.2910156 214.757812,58.2910156 C215.003907,58.2910156 215.256835,58.2558597 215.516602,58.1855469 C215.776368,58.115234 216.099607,57.9863291 216.486328,57.7988281 L216.486328,58.6542969 C216.119139,58.8261727 215.794923,58.9462887 215.513672,59.0146484 C215.23242,59.0830082 214.921877,59.1171875 214.582031,59.1171875 Z M215.396484,53.2988281 C214.994139,53.2988281 214.616213,53.48242 214.262695,53.8496094 C213.909178,54.2167987 213.638673,54.7265592 213.451172,55.3789062 L213.521484,55.3789062 C214.412114,55.3789062 215.094724,55.2626965 215.569336,55.0302734 C216.043948,54.7978504 216.28125,54.4609397 216.28125,54.0195312 C216.28125,53.812499 216.209962,53.6406257 216.067383,53.5039062 C215.924804,53.3671868 215.701173,53.2988281 215.396484,53.2988281 Z M218.947266,59 L217.962891,59 L219.333984,52.578125 L220.318359,52.578125 L218.947266,59 Z M219.609375,50.9375 C219.609375,50.7187489 219.671874,50.5400398 219.796875,50.4013672 C219.921876,50.2626946 220.083983,50.1933594 220.283203,50.1933594 C220.626955,50.1933594 220.798828,50.3691389 220.798828,50.7207031 C220.798828,50.9355479 220.733399,51.1171868 220.602539,51.265625 C220.471679,51.4140632 220.320313,51.4882812 220.148438,51.4882812 C219.992187,51.4882812 219.863282,51.4404302 219.761719,51.3447266 C219.660156,51.249023 219.609375,51.1132821 219.609375,50.9375 Z M224.935547,59 L225.802734,54.9453125 C225.88086,54.5390605 225.919922,54.2578133 225.919922,54.1015625 C225.919922,53.8554675 225.850587,53.6582039 225.711914,53.5097656 C225.573241,53.3613274 225.351564,53.2871094 225.046875,53.2871094 C224.699217,53.2871094 224.360353,53.4042957 224.030273,53.6386719 C223.700194,53.873048 223.409181,54.2070291 223.157227,54.640625 C222.905272,55.0742209 222.714844,55.5996063 222.585938,56.2167969 L221.994141,59 L221.009766,59 L222.380859,52.578125 L223.195312,52.578125 L223.066406,53.7675781 L223.125,53.7675781 C223.500002,53.2910132 223.862303,52.9541025 224.211914,52.7568359 C224.561525,52.5595693 224.923826,52.4609375 225.298828,52.4609375 C225.794924,52.4609375 226.186522,52.5966783 226.473633,52.8681641 C226.760744,53.1396498 226.904297,53.5195288 226.904297,54.0078125 C226.904297,54.3164078 226.859375,54.6679668 226.769531,55.0625 L225.931641,59 L224.935547,59 Z M229.904297,58.3144531 C230.119142,58.3144531 230.400389,58.2636724 230.748047,58.1621094 L230.748047,58.9179688 C230.615234,58.9726565 230.451173,59.0195311 230.255859,59.0585938 C230.060546,59.0976564 229.904297,59.1171875 229.787109,59.1171875 C229.298826,59.1171875 228.924806,59.0009777 228.665039,58.7685547 C228.405272,58.5361317 228.275391,58.1894554 228.275391,57.7285156 C228.275391,57.4707018 228.310547,57.177736 228.380859,56.8496094 L229.125,53.3222656 L228.117188,53.3222656 L228.199219,52.8945312 L229.283203,52.4375 L230.015625,51.1015625 L230.589844,51.1015625 L230.267578,52.578125 L231.873047,52.578125 L231.720703,53.3222656 L230.121094,53.3222656 L229.365234,56.8613281 C229.294922,57.2011736 229.259766,57.4589835 229.259766,57.6347656 C229.259766,57.8535167 229.316406,58.0214838 229.429688,58.1386719 C229.542969,58.25586 229.701171,58.3144531 229.904297,58.3144531 Z M231.732422,58.5664062 C231.732422,58.2656235 231.811523,58.0263681 231.969727,57.8486328 C232.12793,57.6708975 232.345702,57.5820312 232.623047,57.5820312 C232.791016,57.5820312 232.926757,57.632812 233.030273,57.734375 C233.13379,57.835938 233.185547,57.9902333 233.185547,58.1972656 C233.185547,58.4746108 233.107423,58.7060538 232.951172,58.8916016 C232.794921,59.0771494 232.583986,59.1699219 232.318359,59.1699219 C232.138671,59.1699219 231.996094,59.1191411 231.890625,59.0175781 C231.785156,58.9160151 231.732422,58.765626 231.732422,58.5664062 Z" id="Alles-Finanzielle-en-Copy" fill="#636363"></path>
            <path d="M54.5507812,53.6484375 C53.7421835,53.6484375 53.0097689,53.5253919 52.3535156,53.2792969 L52.3535156,50.8007812 C53.1035194,51.058595 53.7597628,51.1875 54.3222656,51.1875 C55.2128951,51.1875 55.8984351,50.8242224 56.3789062,50.0976562 C56.8593774,49.3710901 57.2460923,48.3339911 57.5390625,46.9863281 L61.5292969,27.9667969 L58.1367188,27.9667969 L58.3652344,26.7890625 L61.9863281,25.6289062 L62.390625,23.8710938 C62.9296902,21.527332 63.676753,19.8720751 64.6318359,18.9052734 C65.5869188,17.9384717 67.0019437,17.4550781 68.8769531,17.4550781 C69.3457055,17.4550781 69.9199185,17.5224603 70.5996094,17.6572266 C71.2793003,17.7919929 71.8066388,17.9414054 72.1816406,18.1054688 L71.4257812,20.3730469 C70.5351518,20.0332014 69.7324254,19.8632812 69.0175781,19.8632812 C67.9980418,19.8632812 67.215823,20.1474581 66.6708984,20.7158203 C66.1259738,21.2841825 65.6835954,22.3242112 65.34375,23.8359375 L64.9042969,25.734375 L69.0878906,25.734375 L68.6484375,27.9667969 L64.4824219,27.9667969 L60.4042969,47.2675781 C59.9472633,49.4824329 59.2441454,51.0996043 58.2949219,52.1191406 C57.3456984,53.138677 56.097664,53.6484375 54.5507812,53.6484375 Z M71.671875,45 L68.71875,45 L72.8320312,25.734375 L75.7851562,25.734375 L71.671875,45 Z M73.6582031,20.8125 C73.6582031,20.1562467 73.8457013,19.6201193 74.2207031,19.2041016 C74.595705,18.7880839 75.0820283,18.5800781 75.6796875,18.5800781 C76.7109427,18.5800781 77.2265625,19.1074166 77.2265625,20.1621094 C77.2265625,20.8066438 77.0302754,21.3515603 76.6376953,21.796875 C76.2451152,22.2421897 75.7910182,22.4648438 75.2753906,22.4648438 C74.8066383,22.4648438 74.4199234,22.3212905 74.1152344,22.0341797 C73.8105454,21.7470689 73.6582031,21.3398464 73.6582031,20.8125 Z M89.671875,45 L92.2734375,32.8359375 C92.5078137,31.6171814 92.625,30.7734398 92.625,30.3046875 C92.625,29.5664026 92.4169943,28.9746116 92.0009766,28.5292969 C91.5849589,28.0839821 90.9199264,27.8613281 90.0058594,27.8613281 C88.9628854,27.8613281 87.946294,28.2128871 86.9560547,28.9160156 C85.9658154,29.6191441 85.0927772,30.6210872 84.3369141,31.921875 C83.5810509,33.2226628 83.0097676,34.7988189 82.6230469,36.6503906 L80.8476562,45 L77.8945312,45 L82.0078125,25.734375 L84.4511719,25.734375 L84.0644531,29.3027344 L84.2402344,29.3027344 C85.36524,27.8730397 86.4521432,26.8623076 87.5009766,26.2705078 C88.5498099,25.678708 89.6367131,25.3828125 90.7617188,25.3828125 C92.2500074,25.3828125 93.4248004,25.790035 94.2861328,26.6044922 C95.1474652,27.4189494 95.578125,28.5585864 95.578125,30.0234375 C95.578125,30.9492234 95.4433607,32.0039003 95.1738281,33.1875 L92.6601562,45 L89.671875,45 Z M101.027344,19.3007812 L108.65625,19.3007812 C112.19533,19.3007812 114.752922,19.8164011 116.329102,20.8476562 C117.905281,21.8789114 118.693359,23.5078014 118.693359,25.734375 C118.693359,27.2343825 118.306644,28.4824169 117.533203,29.4785156 C116.759762,30.4746144 115.646492,31.1015612 114.193359,31.359375 L114.193359,31.5351562 C115.998056,31.8750017 117.325191,32.5458934 118.174805,33.5478516 C119.024418,34.5498097 119.449219,35.9062414 119.449219,37.6171875 C119.449219,39.9257928 118.643563,41.7333919 117.032227,43.0400391 C115.42089,44.3466862 113.179702,45 110.308594,45 L101.027344,45 L101.027344,19.3007812 Z M105.228516,29.9179688 L109.271484,29.9179688 C111.029306,29.9179688 112.312496,29.6396512 113.121094,29.0830078 C113.929692,28.5263644 114.333984,27.5800848 114.333984,26.2441406 C114.333984,25.0371033 113.897465,24.1640652 113.024414,23.625 C112.151363,23.0859348 110.765634,22.8164062 108.867188,22.8164062 L105.228516,22.8164062 L105.228516,29.9179688 Z M105.228516,33.328125 L105.228516,41.4667969 L109.693359,41.4667969 C111.451181,41.4667969 112.778316,41.1298862 113.674805,40.4560547 C114.571294,39.7822232 115.019531,38.7187573 115.019531,37.265625 C115.019531,35.9296808 114.562505,34.9394563 113.648438,34.2949219 C112.73437,33.6503874 111.345712,33.328125 109.482422,33.328125 L105.228516,33.328125 Z M136.517578,45 L135.691406,42.2929688 L135.550781,42.2929688 C134.613277,43.4765684 133.669927,44.2822244 132.720703,44.7099609 C131.77148,45.1376975 130.552742,45.3515625 129.064453,45.3515625 C127.154287,45.3515625 125.663091,44.8359427 124.59082,43.8046875 C123.518549,42.7734323 122.982422,41.3144626 122.982422,39.4277344 C122.982422,37.4238181 123.726555,35.9121145 125.214844,34.8925781 C126.703132,33.8730418 128.970688,33.3164067 132.017578,33.2226562 L135.375,33.1171875 L135.375,32.0800781 C135.375,30.8378844 135.084964,29.9091828 134.504883,29.2939453 C133.924802,28.6787079 133.025397,28.3710938 131.806641,28.3710938 C130.810542,28.3710938 129.855473,28.5175767 128.941406,28.8105469 C128.027339,29.1035171 127.148442,29.4492168 126.304688,29.8476562 L124.96875,26.8945312 C126.023443,26.3437472 127.177728,25.9248061 128.431641,25.6376953 C129.685553,25.3505845 130.869135,25.2070312 131.982422,25.2070312 C134.45509,25.2070312 136.321283,25.7460884 137.581055,26.8242188 C138.840827,27.9023491 139.470703,29.5956916 139.470703,31.9042969 L139.470703,45 L136.517578,45 Z M130.365234,42.1875 C131.865242,42.1875 133.069331,41.7685589 133.977539,40.9306641 C134.885747,40.0927692 135.339844,38.9179763 135.339844,37.40625 L135.339844,35.71875 L132.84375,35.8242188 C130.898428,35.8945316 129.483403,36.2197237 128.598633,36.7998047 C127.713863,37.3798857 127.271484,38.2675721 127.271484,39.4628906 C127.271484,40.3300825 127.529294,41.0009742 128.044922,41.4755859 C128.560549,41.9501977 129.333979,42.1875 130.365234,42.1875 Z M149.367188,45 L145.236328,45 L145.236328,17.6484375 L149.367188,17.6484375 L149.367188,45 Z M167.4375,45 L166.611328,42.2929688 L166.470703,42.2929688 C165.533198,43.4765684 164.589848,44.2822244 163.640625,44.7099609 C162.691402,45.1376975 161.472664,45.3515625 159.984375,45.3515625 C158.074209,45.3515625 156.583013,44.8359427 155.510742,43.8046875 C154.438471,42.7734323 153.902344,41.3144626 153.902344,39.4277344 C153.902344,37.4238181 154.646477,35.9121145 156.134766,34.8925781 C157.623054,33.8730418 159.89061,33.3164067 162.9375,33.2226562 L166.294922,33.1171875 L166.294922,32.0800781 C166.294922,30.8378844 166.004886,29.9091828 165.424805,29.2939453 C164.844724,28.6787079 163.945319,28.3710938 162.726562,28.3710938 C161.730464,28.3710938 160.775395,28.5175767 159.861328,28.8105469 C158.947261,29.1035171 158.068364,29.4492168 157.224609,29.8476562 L155.888672,26.8945312 C156.943365,26.3437472 158.09765,25.9248061 159.351562,25.6376953 C160.605475,25.3505845 161.789057,25.2070312 162.902344,25.2070312 C165.375012,25.2070312 167.241205,25.7460884 168.500977,26.8242188 C169.760748,27.9023491 170.390625,29.5956916 170.390625,31.9042969 L170.390625,45 L167.4375,45 Z M161.285156,42.1875 C162.785164,42.1875 163.989253,41.7685589 164.897461,40.9306641 C165.805669,40.0927692 166.259766,38.9179763 166.259766,37.40625 L166.259766,35.71875 L163.763672,35.8242188 C161.81835,35.8945316 160.403325,36.2197237 159.518555,36.7998047 C158.633785,37.3798857 158.191406,38.2675721 158.191406,39.4628906 C158.191406,40.3300825 158.449216,41.0009742 158.964844,41.4755859 C159.480471,41.9501977 160.253901,42.1875 161.285156,42.1875 Z M193.259766,45 L189.111328,45 L189.111328,33.046875 C189.111328,31.5468675 188.809573,30.4277381 188.206055,29.6894531 C187.602536,28.9511682 186.644538,28.5820312 185.332031,28.5820312 C183.585929,28.5820312 182.308598,29.0976511 181.5,30.1289062 C180.691402,31.1601614 180.287109,32.8886597 180.287109,35.3144531 L180.287109,45 L176.15625,45 L176.15625,25.5585938 L179.390625,25.5585938 L179.970703,28.1074219 L180.181641,28.1074219 C180.767581,27.181636 181.599604,26.4667994 182.677734,25.9628906 C183.755865,25.4589819 184.951165,25.2070312 186.263672,25.2070312 C190.927758,25.2070312 193.259766,27.5800544 193.259766,32.3261719 L193.259766,45 Z M206.847656,45.3515625 C203.906235,45.3515625 201.670906,44.4931726 200.141602,42.7763672 C198.612297,41.0595617 197.847656,38.5957192 197.847656,35.3847656 C197.847656,32.115218 198.647453,29.6015713 200.24707,27.84375 C201.846688,26.0859287 204.158188,25.2070312 207.181641,25.2070312 C209.232432,25.2070312 211.078117,25.5878868 212.71875,26.3496094 L211.470703,29.671875 C209.724601,28.9921841 208.283209,28.6523438 207.146484,28.6523438 C203.783186,28.6523438 202.101562,30.8847433 202.101562,35.3496094 C202.101562,37.5293078 202.520504,39.1669867 203.358398,40.2626953 C204.196293,41.3584039 205.42382,41.90625 207.041016,41.90625 C208.880869,41.90625 210.621086,41.4492233 212.261719,40.5351562 L212.261719,44.1386719 C211.523434,44.5722678 210.735356,44.8828116 209.897461,45.0703125 C209.059566,45.2578134 208.042975,45.3515625 206.847656,45.3515625 Z M225.322266,45.3515625 C222.298813,45.3515625 219.934579,44.4697354 218.229492,42.7060547 C216.524406,40.942374 215.671875,38.5136873 215.671875,35.4199219 C215.671875,32.2441247 216.462883,29.748056 218.044922,27.9316406 C219.626961,26.1152253 221.800767,25.2070312 224.566406,25.2070312 C227.132825,25.2070312 229.160149,25.9863203 230.648438,27.5449219 C232.136726,29.1035234 232.880859,31.2480332 232.880859,33.9785156 L232.880859,36.2109375 L219.925781,36.2109375 C219.984375,38.0976657 220.494136,39.5478465 221.455078,40.5615234 C222.41602,41.5752004 223.769523,42.0820312 225.515625,42.0820312 C226.664068,42.0820312 227.733393,41.9736339 228.723633,41.7568359 C229.713872,41.540038 230.777338,41.17969 231.914062,40.6757812 L231.914062,44.0332031 C230.906245,44.5136743 229.886724,44.8535146 228.855469,45.0527344 C227.824214,45.2519541 226.646491,45.3515625 225.322266,45.3515625 Z M224.566406,28.3359375 C223.2539,28.3359375 222.202152,28.751949 221.411133,29.5839844 C220.620113,30.4160198 220.148438,31.6288983 219.996094,33.2226562 L228.820312,33.2226562 C228.796875,31.6171795 228.41016,30.4013713 227.660156,29.5751953 C226.910153,28.7490193 225.878913,28.3359375 224.566406,28.3359375 Z" id="finBalance-Copy" fill="#03ACEF"></path>
            <g id="noun_591125_cc-copy" transform="translate(4.000000, 19.000000)" fill-rule="nonzero" fill="#00A4E5">
                <g id="Group">
                    <g id="Shape">
                        <path d="M3.07692308,20 C3.07692308,17.4692308 3.65076923,15.0753846 4.65076923,12.9153846 L1.97692308,11.3738462 C0.724615385,13.9876923 0,16.9046154 0,20 C0,23.0953846 0.724615385,26.0123077 1.97846154,28.6292308 L4.65076923,27.0846154 C3.65076923,24.9276923 3.07692308,22.5338462 3.07692308,20 Z"></path>
                        <path d="M36.9230769,20 C36.9230769,22.5338462 36.3492308,24.9276923 35.3492308,27.0846154 L38.0215385,28.6292308 C39.2753846,26.0123077 40,23.0938462 40,20 C40,16.9061538 39.2753846,13.9876923 38.0230769,11.3738462 L35.3492308,12.9153846 C36.3492308,15.0753846 36.9230769,17.4692308 36.9230769,20 Z"></path>
                        <path d="M18.4615385,3.15538462 L18.4615385,0.0784615385 C12.2523077,0.553846154 6.83538462,3.84615385 3.50307692,8.69846154 L6.18923077,10.2523077 C8.97846154,6.31230769 13.3984615,3.61538462 18.4615385,3.15538462 Z"></path>
                        <path d="M6.19076923,29.7507692 L3.50307692,31.3015385 C6.83538462,36.1538462 12.2523077,39.4507692 18.4615385,39.9215385 L18.4615385,36.8446154 C13.3984615,36.3846154 8.98,33.6876923 6.19076923,29.7507692 Z"></path>
                        <path d="M33.8107692,10.2523077 L36.4969231,8.70153846 C33.1661538,3.84615385 27.7492308,0.552307692 21.5384615,0.0784615385 L21.5384615,3.15538462 C26.6015385,3.61538462 31.0215385,6.31230769 33.8107692,10.2523077 Z"></path>
                        <path d="M21.5384615,36.8446154 L21.5384615,39.9215385 C27.7476923,39.4492308 33.1646154,36.1538462 36.4969231,31.3015385 L33.8092308,29.7507692 C31.02,33.6876923 26.6015385,36.3846154 21.5384615,36.8446154 Z"></path>
                    </g>
                </g>
            </g>
        </g>
    </g>
</svg>