<?xml version="1.0" encoding="UTF-8"?>
<svg width="249px" height="81px" viewBox="0 0 249 81" version="1.1" xmlns="http://www.w3.org/2000/svg" xmlns:xlink="http://www.w3.org/1999/xlink">
    <!-- Generator: Sketch 47.1 (45422) - http://www.bohemiancoding.com/sketch -->
    <title>logo</title>
    <desc>Created with Sketch.</desc>
    <defs></defs>
    <g id="Page-1" stroke="none" stroke-width="1" fill="none" fill-rule="evenodd">
        <g id="logo" fill="#FFFFFF">
            <path d="M75.2480469,57.2753906 L72.3417969,57.2753906 L70.90625,60 L69.7988281,60 L74.4804688,51.4335938 L75.5,51.4335938 L76.578125,60 L75.5820312,60 L75.2480469,57.2753906 Z M75.1425781,56.3613281 L74.9375,54.609375 C74.8437495,53.9101528 74.7871095,53.2265658 74.7675781,52.5585938 C74.6230462,52.9023455 74.4658212,53.2441389 74.2958984,53.5839844 C74.1259757,53.9238298 73.6386759,54.8496018 72.8339844,56.3613281 L75.1425781,56.3613281 Z M78.4648438,60 L77.4804688,60 L79.4257812,50.8828125 L80.4101562,50.8828125 L78.4648438,60 Z M81.5117188,60 L80.5273438,60 L82.4726562,50.8828125 L83.4570312,50.8828125 L81.5117188,60 Z M86.1230469,60.1171875 C85.4042933,60.1171875 84.8398458,59.904299 84.4296875,59.4785156 C84.0195292,59.0527322 83.8144531,58.4628944 83.8144531,57.7089844 C83.8144531,56.9746057 83.9599595,56.2705112 84.2509766,55.5966797 C84.5419936,54.9228482 84.927732,54.3984394 85.4082031,54.0234375 C85.8886743,53.6484356 86.4179659,53.4609375 86.9960938,53.4609375 C87.593753,53.4609375 88.0429672,53.590819 88.34375,53.8505859 C88.6445328,54.1103529 88.7949219,54.4726539 88.7949219,54.9375 C88.7949219,55.6406285 88.4707064,56.1923808 87.8222656,56.5927734 C87.1738249,56.9931661 86.2460998,57.1933594 85.0390625,57.1933594 L84.8457031,57.1933594 L84.8222656,57.6621094 C84.8222656,58.1738307 84.9423816,58.5732408 85.1826172,58.8603516 C85.4228528,59.1474624 85.7949194,59.2910156 86.2988281,59.2910156 C86.5449231,59.2910156 86.7978503,59.2558597 87.0576172,59.1855469 C87.3173841,59.115234 87.6406231,58.9863291 88.0273438,58.7988281 L88.0273438,59.6542969 C87.6601544,59.8261727 87.3359389,59.9462887 87.0546875,60.0146484 C86.7734361,60.0830082 86.4628923,60.1171875 86.1230469,60.1171875 Z M86.9375,54.2988281 C86.5351542,54.2988281 86.1572283,54.48242 85.8037109,54.8496094 C85.4501935,55.2167987 85.1796884,55.7265592 84.9921875,56.3789062 L85.0625,56.3789062 C85.9531295,56.3789062 86.6357398,56.2626965 87.1103516,56.0302734 C87.5849633,55.7978504 87.8222656,55.4609397 87.8222656,55.0195312 C87.8222656,54.812499 87.7509773,54.6406257 87.6083984,54.5039062 C87.4658196,54.3671868 87.242189,54.2988281 86.9375,54.2988281 Z M93.4648438,58.1777344 C93.4648438,58.7871124 93.2490256,59.2626936 92.8173828,59.6044922 C92.38574,59.9462908 91.7773477,60.1171875 90.9921875,60.1171875 C90.3320279,60.1171875 89.7363308,59.9824232 89.2050781,59.7128906 L89.2050781,58.7871094 C89.478517,58.9511727 89.7734359,59.0781246 90.0898438,59.1679688 C90.4062516,59.2578129 90.6992174,59.3027344 90.96875,59.3027344 C91.46094,59.3027344 91.83203,59.2050791 92.0820312,59.0097656 C92.3320325,58.8144521 92.4570312,58.5644546 92.4570312,58.2597656 C92.4570312,58.0371083 92.3886726,57.8496101 92.2519531,57.6972656 C92.1152337,57.5449211 91.8203148,57.3359388 91.3671875,57.0703125 C90.8593725,56.7851548 90.5000011,56.5058607 90.2890625,56.2324219 C90.0781239,55.958983 89.9726562,55.6347675 89.9726562,55.2597656 C89.9726562,54.7207004 90.1699199,54.2861345 90.5644531,53.9560547 C90.9589863,53.6259749 91.4785124,53.4609375 92.1230469,53.4609375 C92.791019,53.4609375 93.4355438,53.6054673 94.0566406,53.8945312 L93.7402344,54.6972656 L93.4121094,54.5507812 C93.0175762,54.3828117 92.5878929,54.2988281 92.1230469,54.2988281 C91.7597638,54.2988281 91.4746104,54.3837882 91.2675781,54.5537109 C91.0605458,54.7236337 90.9570312,54.943358 90.9570312,55.2128906 C90.9570312,55.4316417 91.0263665,55.6191398 91.1650391,55.7753906 C91.3037116,55.9316414 91.5898416,56.1328113 92.0234375,56.3789062 C92.4414083,56.6132824 92.74121,56.8144523 92.9228516,56.9824219 C93.1044931,57.1503915 93.2402339,57.3310537 93.3300781,57.5244141 C93.4199223,57.7177744 93.4648438,57.9355457 93.4648438,58.1777344 Z M98.9257812,60 L97.9179688,60 L99.7285156,51.4335938 L104.035156,51.4335938 L103.859375,52.3300781 L100.53125,52.3300781 L99.8867188,55.453125 L102.980469,55.453125 L102.792969,56.3496094 L99.6933594,56.3496094 L98.9257812,60 Z M104.410156,60 L103.425781,60 L104.796875,53.578125 L105.78125,53.578125 L104.410156,60 Z M105.072266,51.9375 C105.072266,51.7187489 105.134765,51.5400398 105.259766,51.4013672 C105.384766,51.2626946 105.546874,51.1933594 105.746094,51.1933594 C106.089845,51.1933594 106.261719,51.3691389 106.261719,51.7207031 C106.261719,51.9355479 106.19629,52.1171868 106.06543,52.265625 C105.93457,52.4140632 105.783204,52.4882812 105.611328,52.4882812 C105.455077,52.4882812 105.326172,52.4404302 105.224609,52.3447266 C105.123046,52.249023 105.072266,52.1132821 105.072266,51.9375 Z M110.398438,60 L111.265625,55.9453125 C111.34375,55.5390605 111.382812,55.2578133 111.382812,55.1015625 C111.382812,54.8554675 111.313477,54.6582039 111.174805,54.5097656 C111.036132,54.3613274 110.814455,54.2871094 110.509766,54.2871094 C110.162108,54.2871094 109.823244,54.4042957 109.493164,54.6386719 C109.163084,54.873048 108.872072,55.2070291 108.620117,55.640625 C108.368163,56.0742209 108.177735,56.5996063 108.048828,57.2167969 L107.457031,60 L106.472656,60 L107.84375,53.578125 L108.658203,53.578125 L108.529297,54.7675781 L108.587891,54.7675781 C108.962892,54.2910132 109.325194,53.9541025 109.674805,53.7568359 C110.024416,53.5595693 110.386717,53.4609375 110.761719,53.4609375 C111.257815,53.4609375 111.649413,53.5966783 111.936523,53.8681641 C112.223634,54.1396498 112.367188,54.5195288 112.367188,55.0078125 C112.367188,55.3164078 112.322266,55.6679668 112.232422,56.0625 L111.394531,60 L110.398438,60 Z M116.796875,53.4609375 C117.156252,53.4609375 117.476561,53.5576162 117.757812,53.7509766 C118.039064,53.9443369 118.257812,54.2226544 118.414062,54.5859375 L118.478516,54.5859375 L118.871094,53.578125 L119.615234,53.578125 L118.25,60 L117.470703,60 L117.623047,58.7753906 L117.576172,58.7753906 C116.87695,59.6699263 116.140629,60.1171875 115.367188,60.1171875 C114.824216,60.1171875 114.398439,59.9238301 114.089844,59.5371094 C113.781248,59.1503887 113.626953,58.6210971 113.626953,57.9492188 C113.626953,57.1367147 113.765624,56.382816 114.042969,55.6875 C114.320314,54.992184 114.703123,54.4472676 115.191406,54.0527344 C115.67969,53.6582012 116.214841,53.4609375 116.796875,53.4609375 Z M115.683594,59.3027344 C116.062502,59.3027344 116.439451,59.1220721 116.814453,58.7607422 C117.189455,58.3994123 117.494139,57.9287138 117.728516,57.3486328 C117.962892,56.7685518 118.080078,56.1875029 118.080078,55.6054688 C118.080078,55.203123 117.970704,54.8828137 117.751953,54.6445312 C117.533202,54.4062488 117.246096,54.2871094 116.890625,54.2871094 C116.484373,54.2871094 116.106447,54.4550764 115.756836,54.7910156 C115.407225,55.1269548 115.132813,55.5820284 114.933594,56.15625 C114.734374,56.7304716 114.634766,57.3359343 114.634766,57.9726562 C114.634766,58.417971 114.726562,58.7509755 114.910156,58.9716797 C115.093751,59.1923839 115.351561,59.3027344 115.683594,59.3027344 Z M124.103516,60 L124.970703,55.9453125 C125.048829,55.5390605 125.087891,55.2578133 125.087891,55.1015625 C125.087891,54.8554675 125.018555,54.6582039 124.879883,54.5097656 C124.74121,54.3613274 124.519533,54.2871094 124.214844,54.2871094 C123.867186,54.2871094 123.528322,54.4042957 123.198242,54.6386719 C122.868162,54.873048 122.57715,55.2070291 122.325195,55.640625 C122.073241,56.0742209 121.882813,56.5996063 121.753906,57.2167969 L121.162109,60 L120.177734,60 L121.548828,53.578125 L122.363281,53.578125 L122.234375,54.7675781 L122.292969,54.7675781 C122.667971,54.2910132 123.030272,53.9541025 123.379883,53.7568359 C123.729494,53.5595693 124.091795,53.4609375 124.466797,53.4609375 C124.962893,53.4609375 125.354491,53.5966783 125.641602,53.8681641 C125.928712,54.1396498 126.072266,54.5195288 126.072266,55.0078125 C126.072266,55.3164078 126.027344,55.6679668 125.9375,56.0625 L125.099609,60 L124.103516,60 Z M130.800781,60 L126.587891,60 L126.722656,59.3144531 L130.789062,54.3105469 L127.982422,54.3105469 L128.140625,53.578125 L131.990234,53.578125 L131.820312,54.3984375 L127.835938,59.2675781 L130.947266,59.2675781 L130.800781,60 Z M133.414062,60 L132.429688,60 L133.800781,53.578125 L134.785156,53.578125 L133.414062,60 Z M134.076172,51.9375 C134.076172,51.7187489 134.138671,51.5400398 134.263672,51.4013672 C134.388672,51.2626946 134.55078,51.1933594 134.75,51.1933594 C135.093752,51.1933594 135.265625,51.3691389 135.265625,51.7207031 C135.265625,51.9355479 135.200196,52.1171868 135.069336,52.265625 C134.938476,52.4140632 134.78711,52.4882812 134.615234,52.4882812 C134.458984,52.4882812 134.330079,52.4404302 134.228516,52.3447266 C134.126953,52.249023 134.076172,52.1132821 134.076172,51.9375 Z M138.013672,60.1171875 C137.294918,60.1171875 136.730471,59.904299 136.320312,59.4785156 C135.910154,59.0527322 135.705078,58.4628944 135.705078,57.7089844 C135.705078,56.9746057 135.850584,56.2705112 136.141602,55.5966797 C136.432619,54.9228482 136.818357,54.3984394 137.298828,54.0234375 C137.779299,53.6484356 138.308591,53.4609375 138.886719,53.4609375 C139.484378,53.4609375 139.933592,53.590819 140.234375,53.8505859 C140.535158,54.1103529 140.685547,54.4726539 140.685547,54.9375 C140.685547,55.6406285 140.361331,56.1923808 139.712891,56.5927734 C139.06445,56.9931661 138.136725,57.1933594 136.929688,57.1933594 L136.736328,57.1933594 L136.712891,57.6621094 C136.712891,58.1738307 136.833007,58.5732408 137.073242,58.8603516 C137.313478,59.1474624 137.685544,59.2910156 138.189453,59.2910156 C138.435548,59.2910156 138.688475,59.2558597 138.948242,59.1855469 C139.208009,59.115234 139.531248,58.9863291 139.917969,58.7988281 L139.917969,59.6542969 C139.550779,59.8261727 139.226564,59.9462887 138.945312,60.0146484 C138.664061,60.0830082 138.353517,60.1171875 138.013672,60.1171875 Z M138.828125,54.2988281 C138.425779,54.2988281 138.047853,54.48242 137.694336,54.8496094 C137.340819,55.2167987 137.070313,55.7265592 136.882812,56.3789062 L136.953125,56.3789062 C137.843754,56.3789062 138.526365,56.2626965 139.000977,56.0302734 C139.475588,55.7978504 139.712891,55.4609397 139.712891,55.0195312 C139.712891,54.812499 139.641602,54.6406257 139.499023,54.5039062 C139.356445,54.3671868 139.132814,54.2988281 138.828125,54.2988281 Z M142.367188,60 L141.382812,60 L143.328125,50.8828125 L144.3125,50.8828125 L142.367188,60 Z M145.414062,60 L144.429688,60 L146.375,50.8828125 L147.359375,50.8828125 L145.414062,60 Z M150.025391,60.1171875 C149.306637,60.1171875 148.74219,59.904299 148.332031,59.4785156 C147.921873,59.0527322 147.716797,58.4628944 147.716797,57.7089844 C147.716797,56.9746057 147.862303,56.2705112 148.15332,55.5966797 C148.444337,54.9228482 148.830076,54.3984394 149.310547,54.0234375 C149.791018,53.6484356 150.32031,53.4609375 150.898438,53.4609375 C151.496097,53.4609375 151.945311,53.590819 152.246094,53.8505859 C152.546877,54.1103529 152.697266,54.4726539 152.697266,54.9375 C152.697266,55.6406285 152.37305,56.1923808 151.724609,56.5927734 C151.076169,56.9931661 150.148444,57.1933594 148.941406,57.1933594 L148.748047,57.1933594 L148.724609,57.6621094 C148.724609,58.1738307 148.844725,58.5732408 149.084961,58.8603516 C149.325197,59.1474624 149.697263,59.2910156 150.201172,59.2910156 C150.447267,59.2910156 150.700194,59.2558597 150.959961,59.1855469 C151.219728,59.115234 151.542967,58.9863291 151.929688,58.7988281 L151.929688,59.6542969 C151.562498,59.8261727 151.238283,59.9462887 150.957031,60.0146484 C150.67578,60.0830082 150.365236,60.1171875 150.025391,60.1171875 Z M150.839844,54.2988281 C150.437498,54.2988281 150.059572,54.48242 149.706055,54.8496094 C149.352537,55.2167987 149.082032,55.7265592 148.894531,56.3789062 L148.964844,56.3789062 C149.855473,56.3789062 150.538084,56.2626965 151.012695,56.0302734 C151.487307,55.7978504 151.724609,55.4609397 151.724609,55.0195312 C151.724609,54.812499 151.653321,54.6406257 151.510742,54.5039062 C151.368163,54.3671868 151.144533,54.2988281 150.839844,54.2988281 Z M159.060547,60.1171875 C158.341793,60.1171875 157.777346,59.904299 157.367188,59.4785156 C156.957029,59.0527322 156.751953,58.4628944 156.751953,57.7089844 C156.751953,56.9746057 156.897459,56.2705112 157.188477,55.5966797 C157.479494,54.9228482 157.865232,54.3984394 158.345703,54.0234375 C158.826174,53.6484356 159.355466,53.4609375 159.933594,53.4609375 C160.531253,53.4609375 160.980467,53.590819 161.28125,53.8505859 C161.582033,54.1103529 161.732422,54.4726539 161.732422,54.9375 C161.732422,55.6406285 161.408206,56.1923808 160.759766,56.5927734 C160.111325,56.9931661 159.1836,57.1933594 157.976562,57.1933594 L157.783203,57.1933594 L157.759766,57.6621094 C157.759766,58.1738307 157.879882,58.5732408 158.120117,58.8603516 C158.360353,59.1474624 158.732419,59.2910156 159.236328,59.2910156 C159.482423,59.2910156 159.73535,59.2558597 159.995117,59.1855469 C160.254884,59.115234 160.578123,58.9863291 160.964844,58.7988281 L160.964844,59.6542969 C160.597654,59.8261727 160.273439,59.9462887 159.992188,60.0146484 C159.710936,60.0830082 159.400392,60.1171875 159.060547,60.1171875 Z M159.875,54.2988281 C159.472654,54.2988281 159.094728,54.48242 158.741211,54.8496094 C158.387694,55.2167987 158.117188,55.7265592 157.929688,56.3789062 L158,56.3789062 C158.890629,56.3789062 159.57324,56.2626965 160.047852,56.0302734 C160.522463,55.7978504 160.759766,55.4609397 160.759766,55.0195312 C160.759766,54.812499 160.688477,54.6406257 160.545898,54.5039062 C160.40332,54.3671868 160.179689,54.2988281 159.875,54.2988281 Z M166.367188,60 L167.234375,55.9453125 C167.3125,55.5390605 167.351562,55.2578133 167.351562,55.1015625 C167.351562,54.8554675 167.282227,54.6582039 167.143555,54.5097656 C167.004882,54.3613274 166.783205,54.2871094 166.478516,54.2871094 C166.130858,54.2871094 165.791994,54.4042957 165.461914,54.6386719 C165.131834,54.873048 164.840822,55.2070291 164.588867,55.640625 C164.336913,56.0742209 164.146485,56.5996063 164.017578,57.2167969 L163.425781,60 L162.441406,60 L163.8125,53.578125 L164.626953,53.578125 L164.498047,54.7675781 L164.556641,54.7675781 C164.931643,54.2910132 165.293944,53.9541025 165.643555,53.7568359 C165.993166,53.5595693 166.355467,53.4609375 166.730469,53.4609375 C167.226565,53.4609375 167.618163,53.5966783 167.905273,53.8681641 C168.192384,54.1396498 168.335938,54.5195288 168.335938,55.0078125 C168.335938,55.3164078 168.291016,55.6679668 168.201172,56.0625 L167.363281,60 L166.367188,60 Z M172.765625,53.4726562 C173.523441,53.4726562 174.072264,53.8437463 174.412109,54.5859375 L174.470703,54.5859375 C174.53711,53.9804657 174.624999,53.4453148 174.734375,52.9804688 L175.191406,50.8828125 L176.164062,50.8828125 L174.230469,60 L173.416016,60 L173.544922,58.7753906 L173.498047,58.7753906 C173.103514,59.2636743 172.734377,59.609374 172.390625,59.8125 C172.046873,60.015626 171.691408,60.1171875 171.324219,60.1171875 C170.781247,60.1171875 170.357423,59.9257832 170.052734,59.5429688 C169.748045,59.1601543 169.595703,58.6289096 169.595703,57.9492188 C169.595703,57.1132771 169.736327,56.3476597 170.017578,55.6523438 C170.29883,54.9570278 170.678709,54.4199238 171.157227,54.0410156 C171.635745,53.6621075 172.171872,53.4726562 172.765625,53.4726562 Z M171.652344,59.3027344 C172.019533,59.3027344 172.398436,59.120119 172.789062,58.7548828 C173.179689,58.3896466 173.489257,57.9228544 173.717773,57.3544922 C173.94629,56.78613 174.060547,56.2070342 174.060547,55.6171875 C174.060547,55.1835916 173.955079,54.8535168 173.744141,54.6269531 C173.533202,54.4003895 173.226565,54.2871094 172.824219,54.2871094 C172.429686,54.2871094 172.063478,54.4482406 171.725586,54.7705078 C171.387694,55.092775 171.116212,55.5458955 170.911133,56.1298828 C170.706054,56.7138701 170.603516,57.3281218 170.603516,57.9726562 C170.603516,58.8593794 170.953122,59.3027344 171.652344,59.3027344 Z M177.265625,60 L176.28125,60 L178.226562,50.8828125 L179.210938,50.8828125 L177.265625,60 Z M180.324219,60 L179.339844,60 L180.710938,53.578125 L181.695312,53.578125 L180.324219,60 Z M180.986328,51.9375 C180.986328,51.7187489 181.048827,51.5400398 181.173828,51.4013672 C181.298829,51.2626946 181.460937,51.1933594 181.660156,51.1933594 C182.003908,51.1933594 182.175781,51.3691389 182.175781,51.7207031 C182.175781,51.9355479 182.110352,52.1171868 181.979492,52.265625 C181.848632,52.4140632 181.697266,52.4882812 181.525391,52.4882812 C181.36914,52.4882812 181.240235,52.4404302 181.138672,52.3447266 C181.037109,52.249023 180.986328,52.1132821 180.986328,51.9375 Z M185.005859,60.1171875 C184.248043,60.1171875 183.660158,59.9082052 183.242188,59.4902344 C182.824217,59.0722635 182.615234,58.4824257 182.615234,57.7207031 C182.615234,56.9394492 182.759764,56.2187533 183.048828,55.5585938 C183.337892,54.8984342 183.737302,54.3837909 184.24707,54.0146484 C184.756838,53.645506 185.330075,53.4609375 185.966797,53.4609375 C186.501956,53.4609375 187.025388,53.5605459 187.537109,53.7597656 L187.261719,54.5859375 C186.792966,54.3867178 186.365236,54.2871094 185.978516,54.2871094 C185.541013,54.2871094 185.141603,54.4365219 184.780273,54.7353516 C184.418944,55.0341812 184.135743,55.4501926 183.930664,55.9833984 C183.725585,56.5166042 183.623047,57.0957 183.623047,57.7207031 C183.623047,58.2207056 183.752928,58.6093736 184.012695,58.8867188 C184.272462,59.1640639 184.630857,59.3027344 185.087891,59.3027344 C185.369142,59.3027344 185.634764,59.2636723 185.884766,59.1855469 C186.134767,59.1074215 186.380858,59.0156255 186.623047,58.9101562 L186.623047,59.7480469 C186.138669,59.9941419 185.599612,60.1171875 185.005859,60.1171875 Z M191.714844,60 L192.582031,55.9453125 C192.652344,55.5781232 192.6875,55.3144539 192.6875,55.1542969 C192.6875,54.576169 192.400393,54.2871094 191.826172,54.2871094 C191.478514,54.2871094 191.13965,54.4023426 190.80957,54.6328125 C190.479491,54.8632824 190.188478,55.19824 189.936523,55.6376953 C189.684569,56.0771506 189.494141,56.6074188 189.365234,57.2285156 L188.773438,60 L187.789062,60 L189.722656,50.8828125 L190.707031,50.8828125 C190.636718,51.2031266 190.569336,51.5136704 190.504883,51.8144531 C190.440429,52.1152359 190.374024,52.4208969 190.305664,52.7314453 C190.237304,53.0419937 190.163086,53.3671858 190.083008,53.7070312 C190.002929,54.0468767 189.910157,54.4160136 189.804688,54.8144531 L189.869141,54.8144531 C190.23633,54.333982 190.598631,53.9902354 190.956055,53.7832031 C191.313478,53.5761708 191.687498,53.4726562 192.078125,53.4726562 C192.589846,53.4726562 192.98535,53.6132798 193.264648,53.8945312 C193.543947,54.1757827 193.683594,54.5742162 193.683594,55.0898438 C193.683594,55.3320325 193.638672,55.656248 193.548828,56.0625 C193.396484,56.81641 193.113283,58.1288969 192.699219,60 L191.714844,60 Z M198.792969,60 L198.060547,53.578125 L199.044922,53.578125 L199.419922,57.1699219 C199.513672,58.1777394 199.560547,58.8847636 199.560547,59.2910156 L199.595703,59.2910156 C200.091799,58.2167915 200.441405,57.4921894 200.644531,57.1171875 L202.548828,53.578125 L203.591797,53.578125 L200.128906,60 L198.792969,60 Z M205.912109,60.1171875 C205.193356,60.1171875 204.628908,59.904299 204.21875,59.4785156 C203.808592,59.0527322 203.603516,58.4628944 203.603516,57.7089844 C203.603516,56.9746057 203.749022,56.2705112 204.040039,55.5966797 C204.331056,54.9228482 204.716794,54.3984394 205.197266,54.0234375 C205.677737,53.6484356 206.207028,53.4609375 206.785156,53.4609375 C207.382815,53.4609375 207.83203,53.590819 208.132812,53.8505859 C208.433595,54.1103529 208.583984,54.4726539 208.583984,54.9375 C208.583984,55.6406285 208.259769,56.1923808 207.611328,56.5927734 C206.962887,56.9931661 206.035162,57.1933594 204.828125,57.1933594 L204.634766,57.1933594 L204.611328,57.6621094 C204.611328,58.1738307 204.731444,58.5732408 204.97168,58.8603516 C205.211915,59.1474624 205.583982,59.2910156 206.087891,59.2910156 C206.333986,59.2910156 206.586913,59.2558597 206.84668,59.1855469 C207.106447,59.115234 207.429686,58.9863291 207.816406,58.7988281 L207.816406,59.6542969 C207.449217,59.8261727 207.125001,59.9462887 206.84375,60.0146484 C206.562499,60.0830082 206.251955,60.1171875 205.912109,60.1171875 Z M206.726562,54.2988281 C206.324217,54.2988281 205.946291,54.48242 205.592773,54.8496094 C205.239256,55.2167987 204.968751,55.7265592 204.78125,56.3789062 L204.851562,56.3789062 C205.742192,56.3789062 206.424802,56.2626965 206.899414,56.0302734 C207.374026,55.7978504 207.611328,55.4609397 207.611328,55.0195312 C207.611328,54.812499 207.54004,54.6406257 207.397461,54.5039062 C207.254882,54.3671868 207.031252,54.2988281 206.726562,54.2988281 Z M213.353516,53.4609375 C213.623048,53.4609375 213.857421,53.488281 214.056641,53.5429688 L213.845703,54.421875 C213.638671,54.3710935 213.433595,54.3457031 213.230469,54.3457031 C212.874998,54.3457031 212.541994,54.4628895 212.231445,54.6972656 C211.920897,54.9316418 211.649415,55.2568339 211.416992,55.6728516 C211.184569,56.0888693 211.013672,56.5507787 210.904297,57.0585938 L210.277344,60 L209.292969,60 L210.664062,53.578125 L211.478516,53.578125 L211.349609,54.7675781 L211.408203,54.7675781 C211.689455,54.3964825 211.921874,54.1298836 212.105469,53.9677734 C212.289063,53.8056633 212.481444,53.6806645 212.682617,53.5927734 C212.88379,53.5048824 213.107421,53.4609375 213.353516,53.4609375 Z M216.582031,60.1171875 C215.863278,60.1171875 215.29883,59.904299 214.888672,59.4785156 C214.478514,59.0527322 214.273438,58.4628944 214.273438,57.7089844 C214.273438,56.9746057 214.418944,56.2705112 214.709961,55.5966797 C215.000978,54.9228482 215.386716,54.3984394 215.867188,54.0234375 C216.347659,53.6484356 216.87695,53.4609375 217.455078,53.4609375 C218.052737,53.4609375 218.501952,53.590819 218.802734,53.8505859 C219.103517,54.1103529 219.253906,54.4726539 219.253906,54.9375 C219.253906,55.6406285 218.929691,56.1923808 218.28125,56.5927734 C217.632809,56.9931661 216.705084,57.1933594 215.498047,57.1933594 L215.304688,57.1933594 L215.28125,57.6621094 C215.28125,58.1738307 215.401366,58.5732408 215.641602,58.8603516 C215.881837,59.1474624 216.253904,59.2910156 216.757812,59.2910156 C217.003907,59.2910156 217.256835,59.2558597 217.516602,59.1855469 C217.776368,59.115234 218.099607,58.9863291 218.486328,58.7988281 L218.486328,59.6542969 C218.119139,59.8261727 217.794923,59.9462887 217.513672,60.0146484 C217.23242,60.0830082 216.921877,60.1171875 216.582031,60.1171875 Z M217.396484,54.2988281 C216.994139,54.2988281 216.616213,54.48242 216.262695,54.8496094 C215.909178,55.2167987 215.638673,55.7265592 215.451172,56.3789062 L215.521484,56.3789062 C216.412114,56.3789062 217.094724,56.2626965 217.569336,56.0302734 C218.043948,55.7978504 218.28125,55.4609397 218.28125,55.0195312 C218.28125,54.812499 218.209962,54.6406257 218.067383,54.5039062 C217.924804,54.3671868 217.701173,54.2988281 217.396484,54.2988281 Z M220.947266,60 L219.962891,60 L221.333984,53.578125 L222.318359,53.578125 L220.947266,60 Z M221.609375,51.9375 C221.609375,51.7187489 221.671874,51.5400398 221.796875,51.4013672 C221.921876,51.2626946 222.083983,51.1933594 222.283203,51.1933594 C222.626955,51.1933594 222.798828,51.3691389 222.798828,51.7207031 C222.798828,51.9355479 222.733399,52.1171868 222.602539,52.265625 C222.471679,52.4140632 222.320313,52.4882812 222.148438,52.4882812 C221.992187,52.4882812 221.863282,52.4404302 221.761719,52.3447266 C221.660156,52.249023 221.609375,52.1132821 221.609375,51.9375 Z M226.935547,60 L227.802734,55.9453125 C227.88086,55.5390605 227.919922,55.2578133 227.919922,55.1015625 C227.919922,54.8554675 227.850587,54.6582039 227.711914,54.5097656 C227.573241,54.3613274 227.351564,54.2871094 227.046875,54.2871094 C226.699217,54.2871094 226.360353,54.4042957 226.030273,54.6386719 C225.700194,54.873048 225.409181,55.2070291 225.157227,55.640625 C224.905272,56.0742209 224.714844,56.5996063 224.585938,57.2167969 L223.994141,60 L223.009766,60 L224.380859,53.578125 L225.195312,53.578125 L225.066406,54.7675781 L225.125,54.7675781 C225.500002,54.2910132 225.862303,53.9541025 226.211914,53.7568359 C226.561525,53.5595693 226.923826,53.4609375 227.298828,53.4609375 C227.794924,53.4609375 228.186522,53.5966783 228.473633,53.8681641 C228.760744,54.1396498 228.904297,54.5195288 228.904297,55.0078125 C228.904297,55.3164078 228.859375,55.6679668 228.769531,56.0625 L227.931641,60 L226.935547,60 Z M231.904297,59.3144531 C232.119142,59.3144531 232.400389,59.2636724 232.748047,59.1621094 L232.748047,59.9179688 C232.615234,59.9726565 232.451173,60.0195311 232.255859,60.0585938 C232.060546,60.0976564 231.904297,60.1171875 231.787109,60.1171875 C231.298826,60.1171875 230.924806,60.0009777 230.665039,59.7685547 C230.405272,59.5361317 230.275391,59.1894554 230.275391,58.7285156 C230.275391,58.4707018 230.310547,58.177736 230.380859,57.8496094 L231.125,54.3222656 L230.117188,54.3222656 L230.199219,53.8945312 L231.283203,53.4375 L232.015625,52.1015625 L232.589844,52.1015625 L232.267578,53.578125 L233.873047,53.578125 L233.720703,54.3222656 L232.121094,54.3222656 L231.365234,57.8613281 C231.294922,58.2011736 231.259766,58.4589835 231.259766,58.6347656 C231.259766,58.8535167 231.316406,59.0214838 231.429688,59.1386719 C231.542969,59.25586 231.701171,59.3144531 231.904297,59.3144531 Z M233.732422,59.5664062 C233.732422,59.2656235 233.811523,59.0263681 233.969727,58.8486328 C234.12793,58.6708975 234.345702,58.5820312 234.623047,58.5820312 C234.791016,58.5820312 234.926757,58.632812 235.030273,58.734375 C235.13379,58.835938 235.185547,58.9902333 235.185547,59.1972656 C235.185547,59.4746108 235.107423,59.7060538 234.951172,59.8916016 C234.794921,60.0771494 234.583986,60.1699219 234.318359,60.1699219 C234.138671,60.1699219 233.996094,60.1191411 233.890625,60.0175781 C233.785156,59.9160151 233.732422,59.765626 233.732422,59.5664062 Z" id="Alles-Finanzielle-en"></path>
            <path d="M56.5507812,54.6484375 C55.7421835,54.6484375 55.0097689,54.5253919 54.3535156,54.2792969 L54.3535156,51.8007812 C55.1035194,52.058595 55.7597628,52.1875 56.3222656,52.1875 C57.2128951,52.1875 57.8984351,51.8242224 58.3789062,51.0976562 C58.8593774,50.3710901 59.2460923,49.3339911 59.5390625,47.9863281 L63.5292969,28.9667969 L60.1367188,28.9667969 L60.3652344,27.7890625 L63.9863281,26.6289062 L64.390625,24.8710938 C64.9296902,22.527332 65.676753,20.8720751 66.6318359,19.9052734 C67.5869188,18.9384717 69.0019437,18.4550781 70.8769531,18.4550781 C71.3457055,18.4550781 71.9199185,18.5224603 72.5996094,18.6572266 C73.2793003,18.7919929 73.8066388,18.9414054 74.1816406,19.1054688 L73.4257812,21.3730469 C72.5351518,21.0332014 71.7324254,20.8632812 71.0175781,20.8632812 C69.9980418,20.8632812 69.215823,21.1474581 68.6708984,21.7158203 C68.1259738,22.2841825 67.6835954,23.3242112 67.34375,24.8359375 L66.9042969,26.734375 L71.0878906,26.734375 L70.6484375,28.9667969 L66.4824219,28.9667969 L62.4042969,48.2675781 C61.9472633,50.4824329 61.2441454,52.0996043 60.2949219,53.1191406 C59.3456984,54.138677 58.097664,54.6484375 56.5507812,54.6484375 Z M73.671875,46 L70.71875,46 L74.8320312,26.734375 L77.7851562,26.734375 L73.671875,46 Z M75.6582031,21.8125 C75.6582031,21.1562467 75.8457013,20.6201193 76.2207031,20.2041016 C76.595705,19.7880839 77.0820283,19.5800781 77.6796875,19.5800781 C78.7109427,19.5800781 79.2265625,20.1074166 79.2265625,21.1621094 C79.2265625,21.8066438 79.0302754,22.3515603 78.6376953,22.796875 C78.2451152,23.2421897 77.7910182,23.4648438 77.2753906,23.4648438 C76.8066383,23.4648438 76.4199234,23.3212905 76.1152344,23.0341797 C75.8105454,22.7470689 75.6582031,22.3398464 75.6582031,21.8125 Z M91.671875,46 L94.2734375,33.8359375 C94.5078137,32.6171814 94.625,31.7734398 94.625,31.3046875 C94.625,30.5664026 94.4169943,29.9746116 94.0009766,29.5292969 C93.5849589,29.0839821 92.9199264,28.8613281 92.0058594,28.8613281 C90.9628854,28.8613281 89.946294,29.2128871 88.9560547,29.9160156 C87.9658154,30.6191441 87.0927772,31.6210872 86.3369141,32.921875 C85.5810509,34.2226628 85.0097676,35.7988189 84.6230469,37.6503906 L82.8476562,46 L79.8945312,46 L84.0078125,26.734375 L86.4511719,26.734375 L86.0644531,30.3027344 L86.2402344,30.3027344 C87.36524,28.8730397 88.4521432,27.8623076 89.5009766,27.2705078 C90.5498099,26.678708 91.6367131,26.3828125 92.7617188,26.3828125 C94.2500074,26.3828125 95.4248004,26.790035 96.2861328,27.6044922 C97.1474652,28.4189494 97.578125,29.5585864 97.578125,31.0234375 C97.578125,31.9492234 97.4433607,33.0039003 97.1738281,34.1875 L94.6601562,46 L91.671875,46 Z M103.027344,20.3007812 L110.65625,20.3007812 C114.19533,20.3007812 116.752922,20.8164011 118.329102,21.8476562 C119.905281,22.8789114 120.693359,24.5078014 120.693359,26.734375 C120.693359,28.2343825 120.306644,29.4824169 119.533203,30.4785156 C118.759762,31.4746144 117.646492,32.1015612 116.193359,32.359375 L116.193359,32.5351562 C117.998056,32.8750017 119.325191,33.5458934 120.174805,34.5478516 C121.024418,35.5498097 121.449219,36.9062414 121.449219,38.6171875 C121.449219,40.9257928 120.643563,42.7333919 119.032227,44.0400391 C117.42089,45.3466862 115.179702,46 112.308594,46 L103.027344,46 L103.027344,20.3007812 Z M107.228516,30.9179688 L111.271484,30.9179688 C113.029306,30.9179688 114.312496,30.6396512 115.121094,30.0830078 C115.929692,29.5263644 116.333984,28.5800848 116.333984,27.2441406 C116.333984,26.0371033 115.897465,25.1640652 115.024414,24.625 C114.151363,24.0859348 112.765634,23.8164062 110.867188,23.8164062 L107.228516,23.8164062 L107.228516,30.9179688 Z M107.228516,34.328125 L107.228516,42.4667969 L111.693359,42.4667969 C113.451181,42.4667969 114.778316,42.1298862 115.674805,41.4560547 C116.571294,40.7822232 117.019531,39.7187573 117.019531,38.265625 C117.019531,36.9296808 116.562505,35.9394563 115.648438,35.2949219 C114.73437,34.6503874 113.345712,34.328125 111.482422,34.328125 L107.228516,34.328125 Z M138.517578,46 L137.691406,43.2929688 L137.550781,43.2929688 C136.613277,44.4765684 135.669927,45.2822244 134.720703,45.7099609 C133.77148,46.1376975 132.552742,46.3515625 131.064453,46.3515625 C129.154287,46.3515625 127.663091,45.8359427 126.59082,44.8046875 C125.518549,43.7734323 124.982422,42.3144626 124.982422,40.4277344 C124.982422,38.4238181 125.726555,36.9121145 127.214844,35.8925781 C128.703132,34.8730418 130.970688,34.3164067 134.017578,34.2226562 L137.375,34.1171875 L137.375,33.0800781 C137.375,31.8378844 137.084964,30.9091828 136.504883,30.2939453 C135.924802,29.6787079 135.025397,29.3710938 133.806641,29.3710938 C132.810542,29.3710938 131.855473,29.5175767 130.941406,29.8105469 C130.027339,30.1035171 129.148442,30.4492168 128.304688,30.8476562 L126.96875,27.8945312 C128.023443,27.3437472 129.177728,26.9248061 130.431641,26.6376953 C131.685553,26.3505845 132.869135,26.2070312 133.982422,26.2070312 C136.45509,26.2070312 138.321283,26.7460884 139.581055,27.8242188 C140.840827,28.9023491 141.470703,30.5956916 141.470703,32.9042969 L141.470703,46 L138.517578,46 Z M132.365234,43.1875 C133.865242,43.1875 135.069331,42.7685589 135.977539,41.9306641 C136.885747,41.0927692 137.339844,39.9179763 137.339844,38.40625 L137.339844,36.71875 L134.84375,36.8242188 C132.898428,36.8945316 131.483403,37.2197237 130.598633,37.7998047 C129.713863,38.3798857 129.271484,39.2675721 129.271484,40.4628906 C129.271484,41.3300825 129.529294,42.0009742 130.044922,42.4755859 C130.560549,42.9501977 131.333979,43.1875 132.365234,43.1875 Z M151.367188,46 L147.236328,46 L147.236328,18.6484375 L151.367188,18.6484375 L151.367188,46 Z M169.4375,46 L168.611328,43.2929688 L168.470703,43.2929688 C167.533198,44.4765684 166.589848,45.2822244 165.640625,45.7099609 C164.691402,46.1376975 163.472664,46.3515625 161.984375,46.3515625 C160.074209,46.3515625 158.583013,45.8359427 157.510742,44.8046875 C156.438471,43.7734323 155.902344,42.3144626 155.902344,40.4277344 C155.902344,38.4238181 156.646477,36.9121145 158.134766,35.8925781 C159.623054,34.8730418 161.89061,34.3164067 164.9375,34.2226562 L168.294922,34.1171875 L168.294922,33.0800781 C168.294922,31.8378844 168.004886,30.9091828 167.424805,30.2939453 C166.844724,29.6787079 165.945319,29.3710938 164.726562,29.3710938 C163.730464,29.3710938 162.775395,29.5175767 161.861328,29.8105469 C160.947261,30.1035171 160.068364,30.4492168 159.224609,30.8476562 L157.888672,27.8945312 C158.943365,27.3437472 160.09765,26.9248061 161.351562,26.6376953 C162.605475,26.3505845 163.789057,26.2070312 164.902344,26.2070312 C167.375012,26.2070312 169.241205,26.7460884 170.500977,27.8242188 C171.760748,28.9023491 172.390625,30.5956916 172.390625,32.9042969 L172.390625,46 L169.4375,46 Z M163.285156,43.1875 C164.785164,43.1875 165.989253,42.7685589 166.897461,41.9306641 C167.805669,41.0927692 168.259766,39.9179763 168.259766,38.40625 L168.259766,36.71875 L165.763672,36.8242188 C163.81835,36.8945316 162.403325,37.2197237 161.518555,37.7998047 C160.633785,38.3798857 160.191406,39.2675721 160.191406,40.4628906 C160.191406,41.3300825 160.449216,42.0009742 160.964844,42.4755859 C161.480471,42.9501977 162.253901,43.1875 163.285156,43.1875 Z M195.259766,46 L191.111328,46 L191.111328,34.046875 C191.111328,32.5468675 190.809573,31.4277381 190.206055,30.6894531 C189.602536,29.9511682 188.644538,29.5820312 187.332031,29.5820312 C185.585929,29.5820312 184.308598,30.0976511 183.5,31.1289062 C182.691402,32.1601614 182.287109,33.8886597 182.287109,36.3144531 L182.287109,46 L178.15625,46 L178.15625,26.5585938 L181.390625,26.5585938 L181.970703,29.1074219 L182.181641,29.1074219 C182.767581,28.181636 183.599604,27.4667994 184.677734,26.9628906 C185.755865,26.4589819 186.951165,26.2070312 188.263672,26.2070312 C192.927758,26.2070312 195.259766,28.5800544 195.259766,33.3261719 L195.259766,46 Z M208.847656,46.3515625 C205.906235,46.3515625 203.670906,45.4931726 202.141602,43.7763672 C200.612297,42.0595617 199.847656,39.5957192 199.847656,36.3847656 C199.847656,33.115218 200.647453,30.6015713 202.24707,28.84375 C203.846688,27.0859287 206.158188,26.2070312 209.181641,26.2070312 C211.232432,26.2070312 213.078117,26.5878868 214.71875,27.3496094 L213.470703,30.671875 C211.724601,29.9921841 210.283209,29.6523438 209.146484,29.6523438 C205.783186,29.6523438 204.101562,31.8847433 204.101562,36.3496094 C204.101562,38.5293078 204.520504,40.1669867 205.358398,41.2626953 C206.196293,42.3584039 207.42382,42.90625 209.041016,42.90625 C210.880869,42.90625 212.621086,42.4492233 214.261719,41.5351562 L214.261719,45.1386719 C213.523434,45.5722678 212.735356,45.8828116 211.897461,46.0703125 C211.059566,46.2578134 210.042975,46.3515625 208.847656,46.3515625 Z M227.322266,46.3515625 C224.298813,46.3515625 221.934579,45.4697354 220.229492,43.7060547 C218.524406,41.942374 217.671875,39.5136873 217.671875,36.4199219 C217.671875,33.2441247 218.462883,30.748056 220.044922,28.9316406 C221.626961,27.1152253 223.800767,26.2070312 226.566406,26.2070312 C229.132825,26.2070312 231.160149,26.9863203 232.648438,28.5449219 C234.136726,30.1035234 234.880859,32.2480332 234.880859,34.9785156 L234.880859,37.2109375 L221.925781,37.2109375 C221.984375,39.0976657 222.494136,40.5478465 223.455078,41.5615234 C224.41602,42.5752004 225.769523,43.0820312 227.515625,43.0820312 C228.664068,43.0820312 229.733393,42.9736339 230.723633,42.7568359 C231.713872,42.540038 232.777338,42.17969 233.914062,41.6757812 L233.914062,45.0332031 C232.906245,45.5136743 231.886724,45.8535146 230.855469,46.0527344 C229.824214,46.2519541 228.646491,46.3515625 227.322266,46.3515625 Z M226.566406,29.3359375 C225.2539,29.3359375 224.202152,29.751949 223.411133,30.5839844 C222.620113,31.4160198 222.148438,32.6288983 221.996094,34.2226562 L230.820312,34.2226562 C230.796875,32.6171795 230.41016,31.4013713 229.660156,30.5751953 C228.910153,29.7490193 227.878913,29.3359375 226.566406,29.3359375 Z" id="finBalance"></path>
            <g id="noun_591125_cc" transform="translate(6.000000, 20.000000)" fill-rule="nonzero">
                <g id="Group">
                    <g id="Shape">
                        <path d="M3.07692308,20 C3.07692308,17.4692308 3.65076923,15.0753846 4.65076923,12.9153846 L1.97692308,11.3738462 C0.724615385,13.9876923 0,16.9046154 0,20 C0,23.0953846 0.724615385,26.0123077 1.97846154,28.6292308 L4.65076923,27.0846154 C3.65076923,24.9276923 3.07692308,22.5338462 3.07692308,20 Z"></path>
                        <path d="M36.9230769,20 C36.9230769,22.5338462 36.3492308,24.9276923 35.3492308,27.0846154 L38.0215385,28.6292308 C39.2753846,26.0123077 40,23.0938462 40,20 C40,16.9061538 39.2753846,13.9876923 38.0230769,11.3738462 L35.3492308,12.9153846 C36.3492308,15.0753846 36.9230769,17.4692308 36.9230769,20 Z"></path>
                        <path d="M18.4615385,3.15538462 L18.4615385,0.0784615385 C12.2523077,0.553846154 6.83538462,3.84615385 3.50307692,8.69846154 L6.18923077,10.2523077 C8.97846154,6.31230769 13.3984615,3.61538462 18.4615385,3.15538462 Z"></path>
                        <path d="M6.19076923,29.7507692 L3.50307692,31.3015385 C6.83538462,36.1538462 12.2523077,39.4507692 18.4615385,39.9215385 L18.4615385,36.8446154 C13.3984615,36.3846154 8.98,33.6876923 6.19076923,29.7507692 Z"></path>
                        <path d="M33.8107692,10.2523077 L36.4969231,8.70153846 C33.1661538,3.84615385 27.7492308,0.552307692 21.5384615,0.0784615385 L21.5384615,3.15538462 C26.6015385,3.61538462 31.0215385,6.31230769 33.8107692,10.2523077 Z"></path>
                        <path d="M21.5384615,36.8446154 L21.5384615,39.9215385 C27.7476923,39.4492308 33.1646154,36.1538462 36.4969231,31.3015385 L33.8092308,29.7507692 C31.02,33.6876923 26.6015385,36.3846154 21.5384615,36.8446154 Z"></path>
                    </g>
                </g>
            </g>
        </g>
    </g>
</svg>